<mxfile modified="2022-11-20T03:39:34.509Z" host="app.diagrams.net" agent="5.0 (Macintosh; Intel Mac OS X 10_15_7) AppleWebKit/537.36 (KHTML, like Gecko) Chrome/107.0.0.0 Safari/537.36" etag="VfZCU53TYfEKgh2oR7dj" version="20.5.3" type="github">
  <diagram id="WI9T0HZ2pTsCkuznbFz-" name="Page-1">
    <mxGraphModel dx="910" dy="568" grid="1" gridSize="10" guides="1" tooltips="1" connect="1" arrows="1" fold="1" page="1" pageScale="1" pageWidth="1169" pageHeight="827" math="0" shadow="0">
      <root>
        <mxCell id="0" />
        <mxCell id="1" parent="0" />
        <mxCell id="j1WD4EWTUh1aqAafOjG6-61" value="" style="rounded=0;whiteSpace=wrap;html=1;shadow=0;glass=0;dashed=1;sketch=0;strokeColor=#B3B3B3;strokeWidth=2;fontFamily=Helvetica;fontSize=13;fillColor=none;" vertex="1" parent="1">
          <mxGeometry x="290" y="70" width="220" height="470" as="geometry" />
        </mxCell>
        <mxCell id="j1WD4EWTUh1aqAafOjG6-59" value="" style="rounded=0;whiteSpace=wrap;html=1;shadow=0;glass=0;dashed=1;sketch=0;strokeColor=#B3B3B3;strokeWidth=2;fontFamily=Helvetica;fontSize=13;fillColor=none;" vertex="1" parent="1">
          <mxGeometry x="720" y="170" width="230" height="290" as="geometry" />
        </mxCell>
        <mxCell id="j1WD4EWTUh1aqAafOjG6-39" value="" style="shape=delay;whiteSpace=wrap;html=1;fontSize=11;fillColor=none;rotation=-90;" vertex="1" parent="1">
          <mxGeometry x="620" y="269" width="60" height="6" as="geometry" />
        </mxCell>
        <mxCell id="j1WD4EWTUh1aqAafOjG6-38" value="" style="shape=delay;whiteSpace=wrap;html=1;fontSize=11;fillColor=none;rotation=-90;" vertex="1" parent="1">
          <mxGeometry x="633" y="258.5" width="60" height="6" as="geometry" />
        </mxCell>
        <mxCell id="AcxdMaKK0mU5kZiv2lnr-18" style="edgeStyle=orthogonalEdgeStyle;rounded=0;orthogonalLoop=1;jettySize=auto;html=1;strokeColor=#808080;exitX=0.988;exitY=0.427;exitDx=0;exitDy=0;exitPerimeter=0;entryX=0;entryY=0.5;entryDx=0;entryDy=0;" parent="1" source="j1WD4EWTUh1aqAafOjG6-2" target="j1WD4EWTUh1aqAafOjG6-29" edge="1">
          <mxGeometry relative="1" as="geometry">
            <Array as="points">
              <mxPoint x="362" y="156" />
            </Array>
            <mxPoint x="370" y="140" as="sourcePoint" />
            <mxPoint x="390" y="190" as="targetPoint" />
          </mxGeometry>
        </mxCell>
        <mxCell id="j1WD4EWTUh1aqAafOjG6-53" style="edgeStyle=orthogonalEdgeStyle;rounded=0;orthogonalLoop=1;jettySize=auto;html=1;entryX=0.991;entryY=0.196;entryDx=0;entryDy=0;dashed=1;strokeWidth=2;fontSize=11;startArrow=classic;startFill=0;endArrow=classic;endFill=0;strokeColor=#FF8000;entryPerimeter=0;exitX=-0.031;exitY=0.487;exitDx=0;exitDy=0;exitPerimeter=0;" edge="1" parent="1" source="AcxdMaKK0mU5kZiv2lnr-5" target="j1WD4EWTUh1aqAafOjG6-36">
          <mxGeometry relative="1" as="geometry">
            <Array as="points">
              <mxPoint x="700" y="234" />
              <mxPoint x="700" y="299" />
            </Array>
          </mxGeometry>
        </mxCell>
        <mxCell id="AcxdMaKK0mU5kZiv2lnr-5" value="客户服务器" style="aspect=fixed;html=1;perimeter=none;align=center;shadow=0;dashed=0;image;fontSize=12;image=img/lib/mscae/TaskVM.svg;" parent="1" vertex="1">
          <mxGeometry x="750" y="204.5" width="63" height="60" as="geometry" />
        </mxCell>
        <mxCell id="j1WD4EWTUh1aqAafOjG6-52" style="edgeStyle=orthogonalEdgeStyle;rounded=0;orthogonalLoop=1;jettySize=auto;html=1;entryX=0.998;entryY=0.856;entryDx=0;entryDy=0;dashed=1;strokeWidth=2;fontSize=11;startArrow=classic;startFill=0;endArrow=classic;endFill=0;exitX=0.021;exitY=0.546;exitDx=0;exitDy=0;exitPerimeter=0;strokeColor=#FF8000;entryPerimeter=0;" edge="1" parent="1" source="AcxdMaKK0mU5kZiv2lnr-11" target="j1WD4EWTUh1aqAafOjG6-36">
          <mxGeometry relative="1" as="geometry">
            <Array as="points">
              <mxPoint x="730" y="386" />
              <mxPoint x="700" y="386" />
              <mxPoint x="700" y="329" />
            </Array>
          </mxGeometry>
        </mxCell>
        <mxCell id="AcxdMaKK0mU5kZiv2lnr-11" value="云服务器" style="aspect=fixed;html=1;perimeter=none;align=center;shadow=0;dashed=0;image;fontSize=12;image=img/lib/mscae/Content_Delivery_Network.svg;" parent="1" vertex="1">
          <mxGeometry x="747.55" y="370" width="65.45" height="30" as="geometry" />
        </mxCell>
        <mxCell id="j1WD4EWTUh1aqAafOjG6-56" style="edgeStyle=orthogonalEdgeStyle;rounded=0;orthogonalLoop=1;jettySize=auto;html=1;entryX=0.99;entryY=0.487;entryDx=0;entryDy=0;entryPerimeter=0;dashed=1;strokeColor=#FF00FF;strokeWidth=2;fontSize=11;startArrow=classic;startFill=0;endArrow=classic;endFill=0;exitX=0.012;exitY=0.295;exitDx=0;exitDy=0;exitPerimeter=0;" edge="1" parent="1" source="AcxdMaKK0mU5kZiv2lnr-13" target="AcxdMaKK0mU5kZiv2lnr-5">
          <mxGeometry relative="1" as="geometry">
            <Array as="points">
              <mxPoint x="860" y="301" />
              <mxPoint x="860" y="234" />
            </Array>
          </mxGeometry>
        </mxCell>
        <mxCell id="j1WD4EWTUh1aqAafOjG6-57" style="edgeStyle=orthogonalEdgeStyle;rounded=0;orthogonalLoop=1;jettySize=auto;html=1;entryX=1.005;entryY=0.577;entryDx=0;entryDy=0;entryPerimeter=0;dashed=1;strokeColor=#FF00FF;strokeWidth=2;fontSize=11;startArrow=classic;startFill=0;endArrow=classic;endFill=0;exitX=0.018;exitY=0.705;exitDx=0;exitDy=0;exitPerimeter=0;" edge="1" parent="1" source="AcxdMaKK0mU5kZiv2lnr-13" target="AcxdMaKK0mU5kZiv2lnr-11">
          <mxGeometry relative="1" as="geometry">
            <mxPoint x="890" y="330" as="sourcePoint" />
            <Array as="points">
              <mxPoint x="880" y="321" />
              <mxPoint x="860" y="321" />
              <mxPoint x="860" y="391" />
            </Array>
          </mxGeometry>
        </mxCell>
        <mxCell id="AcxdMaKK0mU5kZiv2lnr-13" value="智能手机" style="aspect=fixed;html=1;perimeter=none;align=center;shadow=0;dashed=0;image;fontSize=12;image=img/lib/mscae/App_Service_Mobile_App.svg;" parent="1" vertex="1">
          <mxGeometry x="893.4999999999999" y="286" width="34.5" height="50" as="geometry" />
        </mxCell>
        <mxCell id="j1WD4EWTUh1aqAafOjG6-16" value="" style="group" vertex="1" connectable="0" parent="1">
          <mxGeometry x="300" y="103.58" width="60" height="86.42" as="geometry" />
        </mxCell>
        <mxCell id="j1WD4EWTUh1aqAafOjG6-12" value="" style="shape=image;verticalLabelPosition=bottom;labelBackgroundColor=default;verticalAlign=top;aspect=fixed;imageAspect=0;image=data:image/svg+xml,PHN2ZyB4bWxuczp4bGluaz0iaHR0cDovL3d3dy53My5vcmcvMTk5OS94bGluayIgeG1sbnM9Imh0dHA6Ly93d3cudzMub3JnLzIwMDAvc3ZnIiBzdHlsZT0iZmlsbC1ydWxlOmV2ZW5vZGQ7Y2xpcC1ydWxlOmV2ZW5vZGQ7c3Ryb2tlLWxpbmVqb2luOnJvdW5kO3N0cm9rZS1taXRlcmxpbWl0OjI7IiB4bWw6c3BhY2U9InByZXNlcnZlIiB2ZXJzaW9uPSIxLjEiIHZpZXdCb3g9IjAgMCAxMTQgMzQ2IiBoZWlnaHQ9IjEwMCUiIHdpZHRoPSIxMDAlIj4mI3hhOyAgICA8ZyB0cmFuc2Zvcm09Im1hdHJpeCgxLDAsMCwxLC0yMjQyLC00MSkiPiYjeGE7ICAgICAgICA8ZyBpZD0i5Zu+5bGCLTEiPiYjeGE7ICAgICAgICA8L2c+JiN4YTsgICAgICAgIDxnIHRyYW5zZm9ybT0ibWF0cml4KDAuOTkwMjIxLDAsMCwwLjkwNTk5NiwtMTguMzcxNSwtMTYwNS4xMSkiIGlkPSLnlLvmnb8xIj4mI3hhOyAgICAgICAgICAgIDxyZWN0IHN0eWxlPSJmaWxsOm5vbmU7IiBoZWlnaHQ9IjE0MTcuMzIiIHdpZHRoPSIyNDM0LjcxIiB5PSIxNzcxLjY1IiB4PSIxOC41NTMiLz4mI3hhOyAgICAgICAgICAgIDxnIHRyYW5zZm9ybT0ibWF0cml4KDAuOTQ0NjAyLC0wLjM5MDM4LDAuMzU3MTc2LDEuMDMyNDIsLTUwNi4xMyw1OTMuNDM2KSI+JiN4YTsgICAgICAgICAgICAgICAgPGc+JiN4YTsgICAgICAgICAgICAgICAgICAgIDxnIHRyYW5zZm9ybT0ibWF0cml4KDIuNTM3NTgsMCwwLDIuNTM3NTgsMTU4OC43LDIwMzIuNjUpIj4mI3hhOyAgICAgICAgICAgICAgICAgICAgICAgIDxnIHRyYW5zZm9ybT0ibWF0cml4KDEsMCwwLDEsMTUyLjk3MiwwLjIwMDEpIj4mI3hhOyAgICAgICAgICAgICAgICAgICAgICAgICAgICA8cGF0aCBzdHlsZT0iZmlsbDpyZ2IoMjU1LDI1NSwyNTQpO2ZpbGwtcnVsZTpub256ZXJvOyIgZD0iTTAsMjExLjY4N0MwLDIxMS42ODcgNjAuOTUxLDIxMS42ODcgNTAuOTU5LDIxMS42ODdDNTAuODA1LDIxMC44OCA1MC44NDgsMjA5Ljk2NCA1MC40NjksMjA5LjI4MUM0MC4wMTEsMTkwLjM5MyAzMC45NzQsMTcwLjc3NCAyMC43MywxNTEuNzY0QzE1LjM2NCwxNDEuODA2IDkuOTYzLDEzMS40MzUgMTEuMTE5LDExOS4yOTNDMTIuNzYzLDEwMi4wMiA1Ljg3NCw4Ni44MyAtMC44NzQsNzEuNjQ3Qy0yLjI4Niw2OC40NyAtNC4yMDksNjUuNDk3IC0zLjg2Nyw2MS44MDZDLTMuOTU4LDU5Ljg4IC0zLjAxOSw1Ny40MTYgLTQuOTg5LDU2LjI3MUMtNy43MTUsNTQuNjg3IC0xMC4yMTgsNTYuNzEzIC0xMi45ODEsNTguMzEyQy0xMi45ODEsNDcuMTMyIC0xMi45NDQsMzYuNTEyIC0xMy4wMTgsMjUuODkzQy0xMy4wMywyNC4wNiAtMTIuMTczLDIxLjc0MiAtMTQuODM4LDIwLjc4MUMtMTUuODMzLDE4LjQyIC0xNS44NjYsMTUuNTA1IC0xOS43NSwxNS40MjhDLTM0LjI4OSwxNS4xNCAtNDguODI3LDE0Ljg1NyAtNjMuMzU0LDE1LjYwOUMtNjYuMTUzLDE1Ljc1NCAtNjguOTg1LDE2Ljg1NyAtNjguMjIsMjAuODEzQy03MC4zNDIsMjIuMDkzIC02OS45MDQsMjQuMjAyIC02OS45MSwyNi4xNDJDLTY5Ljk0NywzOS4zNDMgLTY5Ljk2NCw1Mi41NDQgLTY5Ljk4OCw2NS43NDZDLTcxLjczNyw2Ni4xNzIgLTczLjUzMSw2Ni40NjkgLTc1LjIyMyw2Ny4wNTlDLTc3LjA4NSw2Ny43MDggLTc4Ljk3LDY4LjQ4MyAtNzkuMDg1LDcwLjk3MUMtNzkuMjAyLDczLjQ5MiAtNzcuNzkxLDc0Ljk1MyAtNzUuNzAxLDc1Ljg4N0MtNzMuOTA5LDc2LjY4OCAtNzIuMDUsNzcuMzQ0IC03MC4yMjEsNzguMDY0Qy03MC4yNDEsNzguNTMzIC03MC4yNjEsNzkgLTcwLjI4MSw3OS40NjlDLTcyLjg1LDc5Ljk4NCAtNzMuOTEsODEuNTQ3IC03NS4yNzgsODMuOTI5Qy03Ny45MjEsODguNTMxIC03NS44OTgsOTEuODU4IC03NC4xMzksOTUuNTgzQy03Ni45MDgsOTYuNjQzIC03NS42NjYsOTguOTY1IC03NS43OTksMTAwLjg1NEMtNzUuMzY0LDEwMy4zNzEgLTc2LjMwMSwxMDYuNzMyIC03Mi4wNywxMDYuOTE1Qy03MS4wMjgsMTA4LjE4NyAtNjcuOTE2LDEwOS40MDcgLTcxLjYzMiwxMTAuOTg3Qy03Ny4yMTIsMTEzLjM1OSAtNzguNDAxLDExNi4zMjMgLTc1LjA5OCwxMjEuNDczQy03Mi44ODgsMTI0LjkxOCAtNjkuNTU2LDEyNy42NCAtNjguNDU4LDEzMS44MDhDLTY4LjgxOSwxMzQuMTQ5IC02Ny41NTYsMTM1LjQxMSAtNjUuNjA4LDEzNi4zN0MtNjIuOTMyLDEzNy42ODggLTYwLjA3MiwxMzcuMjg5IC01Ny4zNzgsMTM3LjAyNkMtNTAuNTgyLDEzNi4zNjMgLTQ0LjczOSwxMzcuNTkgLTQwLjcyNywxNDMuNjdDLTQwLjg4NSwxNDUuNjM2IC0zOS4zNTIsMTQ2LjU5MiAtMzguMjEsMTQ3LjcxOEMtMzIuOTQsMTUyLjkxNiAtMjcuMDkzLDE1Ny41ODEgLTIxLjg5OCwxNjIuNzM4Qy04LjQ3NSwxNzYuMDYzIC00LjQzNywxOTQuMDcxIDAsMjExLjY4NyIvPiYjeGE7ICAgICAgICAgICAgICAgICAgICAgICAgPC9nPiYjeGE7ICAgICAgICAgICAgICAgICAgICAgICAgPGcgdHJhbnNmb3JtPSJtYXRyaXgoMSwwLDAsMSwxNDkuMTA1LDIwOC40MTUpIj4mI3hhOyAgICAgICAgICAgICAgICAgICAgICAgICAgICA8cGF0aCBzdHlsZT0iZmlsbDpyZ2IoMjQ5LDIyMSwyMDcpO2ZpbGwtcnVsZTpub256ZXJvOyIgZD0iTTAsLTE0Ni40MDlDLTAuMzQyLC0xNDIuNzE4IDEuNTgyLC0xMzkuNzQ1IDIuOTk0LC0xMzYuNTY4QzkuNzQxLC0xMjEuMzg1IDE2LjYzLC0xMDYuMTk1IDE0Ljk4NiwtODguOTIyQzEzLjgzLC03Ni43OCAxOS4yMzEsLTY2LjQwOSAyNC41OTgsLTU2LjQ1MUMzNC44NDEsLTM3LjQ0MSA0My44NzgsLTE3LjgyMiA1NC4zMzYsMS4wNjZDNTQuNzE1LDEuNzQ5IDU0LjY3MiwyLjY2NSA1NC44MjYsMy40NzJMMTYuODU3LDMuNDcyQzE2LjY1MiwtMC4zNjUgMTQuNDU3LC0zLjMwOSAxMi41MjQsLTYuNDAxQzEwLjcyLC05LjI4OCA3LjYzLC0xMi42NjcgOS41NTUsLTE1Ljc1N0MxMi40NjEsLTIwLjQyMiA5Ljc3LC0yMS45ODggNi43NDMsLTIzLjk0NEM1Ljc4OCwtMjQuNTYyIDQuNDMyLC0yNC43MDUgMy42ODYsLTI1LjQ3NkMtMS4yNTgsLTMwLjU4NyAtMi4zOTgsLTQxLjIyNyAxLjM5MywtNDcuODc5QzMuMjg4LC01MS4yMDMgMy45MzUsLTU0LjA0NyAwLjk3NCwtNTcuMTlDLTAuODkyLC01OS4xNzIgLTEuMDA3LC02Mi4zMjQgMC43NjMsLTY0LjAxOUMyLjk3OCwtNjYuMTQgMi43NTgsLTY4LjM2NyAyLjg2MSwtNzAuODA5QzIuOTIyLC03Mi4yNyAyLjMsLTc0LjEzMiAzLjY0OCwtNzUuMDU0QzYuMjI4LC03Ni44MTcgNS44NDUsLTc5LjI5OSA1Ljg2NiwtODEuNzYzQzUuOTM1LC04OS44NTQgNi40NDIsLTk3LjgwOCAxMC40NTUsLTEwNS4xOTRDMTEuMjk1LC0xMDYuNzQgMTEuNDkyLC0xMTAuMDggMTAuNTM5LC0xMTAuODg4QzcuNTM1LC0xMTMuNDM0IDcuNTc1LC0xMTcuMjY5IDUuNjM2LC0xMjAuMjEzQzQuMDkzLC0xMjIuNTU1IDIuMzIsLTEyNC4zNzcgLTAuMDEsLTEyNS42MjVDLTIuNzY0LC0xMjcuMDk4IC01Ljg1NSwtMTI1LjczNiAtNS41MjUsLTEyMy4xNzhDLTUuMDE4LC0xMTkuMjQyIC02LjQwNCwtMTE0Ljk2NSAtNC4zOSwtMTExLjQyN0MtMi4zMTQsLTEwNy43OCAtNi44NjMsLTEwNi44MTEgLTYuNjY0LC0xMDQuMTE3Qy03LjUzMiwtMTA0LjIwNiAtOS4xMSwtMTAzLjQzOCAtOS4wMjEsLTEwNC45MDNDLTguNzQ3LC0xMDkuNDQ5IC0xMC4zMTYsLTExNC4xNTQgLTcuOTc4LC0xMTguNTM0Qy03LjA5OCwtMTE4LjY3OSAtNi4zOTgsLTExOC45NDYgLTYuNjQyLC0xMjAuMDlDLTcuMjIsLTEyMi44MDEgLTcuNzY2LC0xMjUuNTE4IC04LjMyNSwtMTI4LjIzM0MtNS41NjksLTEyOC43MjkgLTQuOTI1LC0xMzAuMDk5IC01LjczNCwtMTMyLjg3NEMtNi44NzgsLTEzNi44MDEgLTcuODE1LC0xNDAuNjU5IC02LjA0NiwtMTQ0Ljk4MkMtNC4zNTYsLTE0OS4xMTMgLTIuOTY4LC0xNDkuODgxIDAsLTE0Ni40MDkiLz4mI3hhOyAgICAgICAgICAgICAgICAgICAgICAgIDwvZz4mI3hhOyAgICAgICAgICAgICAgICAgICAgICAgIDxnIHRyYW5zZm9ybT0ibWF0cml4KDEsMCwwLDEsMTQ5LjEwNSwxNzAuODYyKSI+JiN4YTsgICAgICAgICAgICAgICAgICAgICAgICAgICAgPHBhdGggc3R5bGU9ImZpbGw6cmdiKDI1NSwyMjksMjE3KTtmaWxsLXJ1bGU6bm9uemVybztzdHJva2U6cmdiKDI1NSwyMTYsMTk2KTtzdHJva2Utd2lkdGg6MC4zOXB4OyIgZD0iTTAsLTEwOC44NTZDLTIuOTY4LC0xMTIuMzI4IC00LjM1NiwtMTExLjU2IC02LjA0NiwtMTA3LjQyOUMtNy44MTUsLTEwMy4xMDYgLTYuODc4LC05OS4yNDggLTUuNzM0LC05NS4zMjFDLTQuOTI1LC05Mi41NDYgLTUuNTY5LC05MS4xNzYgLTguMzI0LC05MC42OEMtOC4zMjMsLTkwLjY4MSAtOC4xODcsLTkwLjczOSAtOC4xODcsLTkwLjczOUMtOC4yNTMsLTkxLjQ4OCAtNy45NzMsLTkyLjQ2MiAtOS4yNzMsLTkyLjQwOEwtOS4wNTEsLTkwLjYyNEMtOC43NzIsLTg3LjQwMSAtMTAuMDg2LC04NC4wMDEgLTcuOTc4LC04MC45ODFDLTEwLjMxNiwtNzYuNjAxIC04Ljc0NywtNzEuODk2IC05LjAyMSwtNjcuMzVDLTkuMTEsLTY1Ljg4NSAtNy41MzIsLTY2LjY1MyAtNi42NjQsLTY2LjU2NEMtNi44NjMsLTY5LjI1OCAtMi4zMTQsLTcwLjIyNyAtNC4zOSwtNzMuODc0Qy02LjQwNCwtNzcuNDEyIC01LjAxOCwtODEuNjg5IC01LjUyNSwtODUuNjI1Qy01Ljg1NSwtODguMTgzIC0yLjc2NCwtODkuNTQ1IC0wLjAxLC04OC4wNzJDMi4zMiwtODYuODI0IDQuMDkzLC04NS4wMDIgNS42MzYsLTgyLjY2QzcuNTc1LC03OS43MTYgNy41MzUsLTc1Ljg4MSAxMC41MzksLTczLjMzNUMxMS40OTIsLTcyLjUyNyAxMS4yOTUsLTY5LjE4NyAxMC40NTUsLTY3LjY0MUM2LjQ0MiwtNjAuMjU1IDUuOTM1LC01Mi4zMDEgNS44NjYsLTQ0LjIxQzUuODQ1LC00MS43NDYgNi4yMjgsLTM5LjI2NCAzLjY0OCwtMzcuNTAxQzIuMywtMzYuNTc5IDIuOTIyLC0zNC43MTcgMi44NjEsLTMzLjI1NkMyLjc1OCwtMzAuODE0IDIuOTc4LC0yOC41ODcgMC43NjMsLTI2LjQ2NkMtMS4wMDcsLTI0Ljc3MSAtMC44OTIsLTIxLjYxOSAwLjk3NCwtMTkuNjM3QzMuOTM1LC0xNi40OTQgMy4yODgsLTEzLjY1IDEuMzkzLC0xMC4zMjZDLTIuMzk4LC0zLjY3NCAtMS4yNTgsNi45NjYgMy42ODYsMTIuMDc3QzQuNDMyLDEyLjg0OCA1Ljc4OCwxMi45OTEgNi43NDMsMTMuNjA5QzkuNzcsMTUuNTY1IDEyLjQ2MSwxNy4xMzEgOS41NTUsMjEuNzk2QzcuNjMsMjQuODg2IDEwLjcyLDI4LjI2NSAxMi41MjQsMzEuMTUyQzE0LjQ1NywzNC4yNDQgMTYuNjUyLDM3LjE4OCAxNi44NTcsNDEuMDI1TDMuODY3LDQxLjAyNUMtMC41NywyMy40MDkgLTQuNjA4LDUuNDAxIC0xOC4wMzEsLTcuOTI0Qy0yMy4yMjYsLTEzLjA4MiAtMjkuMDczLC0xNy43NDcgLTM0LjM0MywtMjIuOTQ0Qy0zNS40ODQsLTI0LjA3IC0zNy4wMTgsLTI1LjAyNiAtMzYuODYsLTI2Ljk5MUMtMzEuMzk2LC0yMy44MzkgLTI1LjkzMiwtMjUuODQxIC0yMC40OTIsLTI3LjA1Qy0xNS4yNTgsLTI4LjIxMiAtMTEuMDg0LC0zNi4wNDkgLTEzLjM5MSwtNDAuMjMxQy0xMy4zOTQsLTUwLjg2MyAtMTAuNjk4LC02MS4yODYgLTExLjAzOCwtNzEuOTZDLTExLjM1MSwtODEuNzUxIC0xMS45ODUsLTkxLjYyNCAtMTEuNjQ2LC0xMDEuMzE4Qy0xMS4xNjksLTExNC45NTMgLTkuMTE0LC0xMTIuMzUgLTkuMTE0LC0xMTIuMzVDLTkuMTE0LC0xMTIuMzUgLTMuODQ4LC0xMTUuOTc1IC0xLjEyMiwtMTE0LjM5MUMwLjg0OSwtMTEzLjI0NiAtMC4wOTEsLTExMC43ODIgMCwtMTA4Ljg1NiIvPiYjeGE7ICAgICAgICAgICAgICAgICAgICAgICAgPC9nPiYjeGE7ICAgICAgICAgICAgICAgICAgICA8L2c+JiN4YTsgICAgICAgICAgICAgICAgPC9nPiYjeGE7ICAgICAgICAgICAgPC9nPiYjeGE7ICAgICAgICAgICAgPGcgdHJhbnNmb3JtPSJtYXRyaXgoMC4zNjczODQsLTAuMjI0OTM4LDAuMjA1ODA1LDAuNDAxNTM4LDE1NjUuNTIsMTUxOC40NykiPiYjeGE7ICAgICAgICAgICAgICAgIDxnIHRyYW5zZm9ybT0ibWF0cml4KDAuMTU0Mzk4LDAuMDgwNjU2NCwtMC4wNjUxMzIsMC4xMjQ2OCw4OTMuNzMxLDE3NzguMzMpIj4mI3hhOyAgICAgICAgICAgICAgICAgICAgPGVsbGlwc2Ugc3R5bGU9ImZpbGw6cmdiKDIxOCwyMDMsMTYzKTsiIHJ5PSIzNS44NzUiIHJ4PSI1MC40MjciIGN5PSIyMTMwLjU1IiBjeD0iOTA5LjcyMiIvPiYjeGE7ICAgICAgICAgICAgICAgIDwvZz4mI3hhOyAgICAgICAgICAgICAgICA8ZyB0cmFuc2Zvcm09Im1hdHJpeCgwLjE1NDA1OCwwLjA4MTI0NjYsLTAuMDU4NjE0OSwwLjExMzM5Miw4OTYuMTgyLDE4MTAuMDMpIj4mI3hhOyAgICAgICAgICAgICAgICAgICAgPGVsbGlwc2Ugc3R5bGU9ImZpbGw6cmdiKDI1NSwxOTcsNDcpOyIgcnk9IjM1Ljg3NSIgcng9IjUwLjQyNyIgY3k9IjIxMzAuNTUiIGN4PSI5MDkuNzIyIi8+JiN4YTsgICAgICAgICAgICAgICAgPC9nPiYjeGE7ICAgICAgICAgICAgICAgIDxnIHRyYW5zZm9ybT0ibWF0cml4KDAuNzkwNDEsMC40MzYzNDcsLTAuNzQyMzUzLDEuMzU3OTEsMjM3NS4xNywtMTQ0My4yMSkiPiYjeGE7ICAgICAgICAgICAgICAgICAgICA8cmVjdCBzdHlsZT0iZmlsbDpyZ2IoMjU1LDE5Nyw0Nyk7IiBoZWlnaHQ9IjQzMC40NTkiIHdpZHRoPSIxNy41OTMiIHk9IjIwMzkuMzYiIHg9IjQ3MS44NDEiLz4mI3hhOyAgICAgICAgICAgICAgICA8L2c+JiN4YTsgICAgICAgICAgICAgICAgPGcgdHJhbnNmb3JtPSJtYXRyaXgoMC40Mzc3MTEsMC4yNDE2MzksLTAuNzMzMDE5LDEuMzQwODQsMjUxMy4wMSwtMTMyMi4zOCkiPiYjeGE7ICAgICAgICAgICAgICAgICAgICA8cmVjdCBzdHlsZT0iZmlsbDpyZ2IoNiwxNzIsMTU4KTsiIGhlaWdodD0iNDMwLjQ1OSIgd2lkdGg9IjE3LjU5MyIgeT0iMjAzOS4zNiIgeD0iNDcxLjg0MSIvPiYjeGE7ICAgICAgICAgICAgICAgIDwvZz4mI3hhOyAgICAgICAgICAgICAgICA8ZyB0cmFuc2Zvcm09Im1hdHJpeCgwLjU3MjIxOSwwLjMxNTg5NCwtMC43MzMxNjIsMS4zNDExLDI0ODAuNSwtMTM0MC4xOSkiPiYjeGE7ICAgICAgICAgICAgICAgICAgICA8cmVjdCBzdHlsZT0iZmlsbDpyZ2IoMTM5LDAsMjU1KTsiIGhlaWdodD0iNDMwLjQ1OSIgd2lkdGg9IjE3LjU5MyIgeT0iMjAzOS4zNiIgeD0iNDcxLjg0MSIvPiYjeGE7ICAgICAgICAgICAgICAgIDwvZz4mI3hhOyAgICAgICAgICAgICAgICA8ZyB0cmFuc2Zvcm09Im1hdHJpeCgwLjQxOTg2MiwwLjIzMTc4NSwtMC43NDk0NzYsMS4zNzA5NCwyNTc0Ljc3LC0xMzY3LjcxKSI+JiN4YTsgICAgICAgICAgICAgICAgICAgIDxyZWN0IHN0eWxlPSJmaWxsOnJnYigxMDgsMTA0LDk0KTsiIGhlaWdodD0iNDMwLjQ1OSIgd2lkdGg9IjE3LjU5MyIgeT0iMjAzOS4zNiIgeD0iNDcxLjg0MSIvPiYjeGE7ICAgICAgICAgICAgICAgIDwvZz4mI3hhOyAgICAgICAgICAgICAgICA8ZyB0cmFuc2Zvcm09Im1hdHJpeCgwLjUwODcwOSwwLjI4MDgzMywtMC43NDUzOTUsMS4zNjM0OCwyNDk1LjgsLTEzOTEuOTgpIj4mI3hhOyAgICAgICAgICAgICAgICAgICAgPHJlY3Qgc3R5bGU9ImZpbGw6cmdiKDIwMCwyNTUsNDcpO3N0cm9rZTpyZ2IoMjA5LDI1NSwwKTtzdHJva2Utd2lkdGg6Mi4wNHB4O3N0cm9rZS1saW5lY2FwOnJvdW5kO3N0cm9rZS1taXRlcmxpbWl0OjEuNTsiIGhlaWdodD0iNDMwLjQ1OSIgd2lkdGg9IjE3LjU5MyIgeT0iMjAzOS4zNiIgeD0iNDcxLjg0MSIvPiYjeGE7ICAgICAgICAgICAgICAgIDwvZz4mI3hhOyAgICAgICAgICAgICAgICA8ZyB0cmFuc2Zvcm09Im1hdHJpeCgwLjQzNzcxMSwwLjI0MTYzOSwtMC43NTc2MzEsMS4zODU4NiwyNTQwLjA1LC0xNDI5LjU3KSI+JiN4YTsgICAgICAgICAgICAgICAgICAgIDxyZWN0IHN0eWxlPSJmaWxsOnJnYigyNTUsMTk3LDQ3KTsiIGhlaWdodD0iNDMwLjQ1OSIgd2lkdGg9IjE3LjU5MyIgeT0iMjAzOS4zNiIgeD0iNDcxLjg0MSIvPiYjeGE7ICAgICAgICAgICAgICAgIDwvZz4mI3hhOyAgICAgICAgICAgICAgICA8ZyB0cmFuc2Zvcm09Im1hdHJpeCg1Ljk2NzIxLDMuMjc4OTYsLTAuNzQ3OTcyLDEuMzYxMiwtMTA2LjY4NCwtMjgyMC4wNikiPiYjeGE7ICAgICAgICAgICAgICAgICAgICA8cmVjdCBzdHlsZT0iZmlsbDpyZ2IoMTcwLDE3MCwxNzApO2ZpbGwtb3BhY2l0eTowLjcyO3N0cm9rZTpibGFjaztzdHJva2Utd2lkdGg6MS4wMXB4O3N0cm9rZS1saW5lY2FwOnJvdW5kO3N0cm9rZS1taXRlcmxpbWl0OjEuNTsiIGhlaWdodD0iNDMwLjQ1OSIgd2lkdGg9IjE3LjU5MyIgeT0iMjAzOS4zNiIgeD0iNDcxLjg0MSIvPiYjeGE7ICAgICAgICAgICAgICAgIDwvZz4mI3hhOyAgICAgICAgICAgICAgICA8ZyB0cmFuc2Zvcm09Im1hdHJpeCgwLjc1MzU2MywwLjQxNjM4NiwtMC40ODM2MzYsMC44NzUyNjksMTMzNC43MiwtMTI3Ljc2OSkiPiYjeGE7ICAgICAgICAgICAgICAgICAgICA8ZWxsaXBzZSBzdHlsZT0iZmlsbDpyZ2IoMTcwLDE3MCwxNzApO3N0cm9rZTpibGFjaztzdHJva2Utd2lkdGg6NS4zNXB4O3N0cm9rZS1saW5lY2FwOnJvdW5kO3N0cm9rZS1taXRlcmxpbWl0OjEuNTsiIHJ5PSIzMi41MzUiIHJ4PSI2OS45ODYiIGN5PSIyMTYzLjciIGN4PSI4MzMuNTY4Ii8+JiN4YTsgICAgICAgICAgICAgICAgPC9nPiYjeGE7ICAgICAgICAgICAgICAgIDxnIHRyYW5zZm9ybT0ibWF0cml4KDAuNjI5NzM0LDAuMzYzNTc3LC0wLjAxMjM0MDIsMC4wMjEzNzM5LDY1Ny4yMTcsMTkxMC4zMSkiPiYjeGE7ICAgICAgICAgICAgICAgICAgICA8cmVjdCBzdHlsZT0iZmlsbDpyZ2IoMTE2LDExNiwxMTYpOyIgaGVpZ2h0PSI0MzAuNDU5IiB3aWR0aD0iMTcuNTkzIiB5PSIyMDM5LjM2IiB4PSI0NzEuODQxIi8+JiN4YTsgICAgICAgICAgICAgICAgPC9nPiYjeGE7ICAgICAgICAgICAgICAgIDxnIHRyYW5zZm9ybT0ibWF0cml4KDAuNjI5NzM0LDAuMzYzNTc3LC0wLjAxMzc4OTEsMC4wMjM4ODM0LDY0NC43NTcsMTg4NS42NCkiPiYjeGE7ICAgICAgICAgICAgICAgICAgICA8cmVjdCBzdHlsZT0iZmlsbDpyZ2IoNyw3LDcpOyIgaGVpZ2h0PSI0MzAuNDU5IiB3aWR0aD0iMTcuNTkzIiB5PSIyMDM5LjM2IiB4PSI0NzEuODQxIi8+JiN4YTsgICAgICAgICAgICAgICAgPC9nPiYjeGE7ICAgICAgICAgICAgICAgIDxnIHRyYW5zZm9ybT0ibWF0cml4KDAuNjI5NzM0LDAuMzYzNTc3LC0wLjAxMzc4OTEsMC4wMjM4ODM0LDYzNC41NzQsMTkwMi4zMikiPiYjeGE7ICAgICAgICAgICAgICAgICAgICA8cmVjdCBzdHlsZT0iZmlsbDpyZ2IoMTkzLDE5MywxOTMpO3N0cm9rZTpyZ2IoMTkyLDE5MiwxOTIpO3N0cm9rZS13aWR0aDo0LjY2cHg7c3Ryb2tlLWxpbmVjYXA6cm91bmQ7c3Ryb2tlLW1pdGVybGltaXQ6MS41OyIgaGVpZ2h0PSI0MzAuNDU5IiB3aWR0aD0iMTcuNTkzIiB5PSIyMDM5LjM2IiB4PSI0NzEuODQxIi8+JiN4YTsgICAgICAgICAgICAgICAgPC9nPiYjeGE7ICAgICAgICAgICAgICAgIDxnIHRyYW5zZm9ybT0ibWF0cml4KDAuNjI5NzM0LDAuMzYzNTc3LC0wLjAwOTk0NjUzLDAuMDE3MjI3OSw2MDkuNzgyLDE4OTguODgpIj4mI3hhOyAgICAgICAgICAgICAgICAgICAgPHJlY3Qgc3R5bGU9ImZpbGw6cmdiKDExNiwxMTYsMTE2KTsiIGhlaWdodD0iNDMwLjQ1OSIgd2lkdGg9IjE3LjU5MyIgeT0iMjAzOS4zNiIgeD0iNDcxLjg0MSIvPiYjeGE7ICAgICAgICAgICAgICAgIDwvZz4mI3hhOyAgICAgICAgICAgICAgICA8ZyB0cmFuc2Zvcm09Im1hdHJpeCgwLjYyOTczNCwwLjM2MzU3NywtMC4wMTU2NDc2LDAuMDI3MTAyNSw2NzguOTAxLDE4NzkuMDgpIj4mI3hhOyAgICAgICAgICAgICAgICAgICAgPHJlY3Qgc3R5bGU9ImZpbGw6cmdiKDExNiwxMTYsMTE2KTsiIGhlaWdodD0iNDMwLjQ1OSIgd2lkdGg9IjE3LjU5MyIgeT0iMjAzOS4zNiIgeD0iNDcxLjg0MSIvPiYjeGE7ICAgICAgICAgICAgICAgIDwvZz4mI3hhOyAgICAgICAgICAgICAgICA8ZyB0cmFuc2Zvcm09Im1hdHJpeCgwLjYyOTczNCwwLjM2MzU3NywtMC4wMTY1NDE3LDAuMDI4NjUxLDY1OS4zNjcsMTg1OS4zNykiPiYjeGE7ICAgICAgICAgICAgICAgICAgICA8cmVjdCBzdHlsZT0iZmlsbDpyZ2IoMTE2LDExNiwxMTYpOyIgaGVpZ2h0PSI0MzAuNDU5IiB3aWR0aD0iMTcuNTkzIiB5PSIyMDM5LjM2IiB4PSI0NzEuODQxIi8+JiN4YTsgICAgICAgICAgICAgICAgPC9nPiYjeGE7ICAgICAgICAgICAgICAgIDxnIHRyYW5zZm9ybT0ibWF0cml4KDAuNjI5NzM0LDAuMzYzNTc3LC0wLjAxODE3NDksMC4wMzE0Nzk4LDY0MS42NzksMTg0My42MykiPiYjeGE7ICAgICAgICAgICAgICAgICAgICA8cmVjdCBzdHlsZT0iZmlsbDpyZ2IoMTE2LDExNiwxMTYpOyIgaGVpZ2h0PSI0MzAuNDU5IiB3aWR0aD0iMTcuNTkzIiB5PSIyMDM5LjM2IiB4PSI0NzEuODQxIi8+JiN4YTsgICAgICAgICAgICAgICAgPC9nPiYjeGE7ICAgICAgICAgICAgPC9nPiYjeGE7ICAgICAgICAgICAgPGcgaWQ9IuWbvuWxgi0xMSI+JiN4YTsgICAgICAgICAgICA8L2c+JiN4YTsgICAgICAgIDwvZz4mI3hhOyAgICA8L2c+JiN4YTs8L3N2Zz4=;rotation=0;" vertex="1" parent="j1WD4EWTUh1aqAafOjG6-16">
          <mxGeometry x="36" width="24" height="72.84" as="geometry" />
        </mxCell>
        <mxCell id="j1WD4EWTUh1aqAafOjG6-2" value="" style="rounded=0;whiteSpace=wrap;html=1;fillColor=none;" vertex="1" parent="j1WD4EWTUh1aqAafOjG6-16">
          <mxGeometry y="26.42" width="60" height="60" as="geometry" />
        </mxCell>
        <mxCell id="j1WD4EWTUh1aqAafOjG6-8" value="" style="shape=tape;whiteSpace=wrap;html=1;size=1;" vertex="1" parent="j1WD4EWTUh1aqAafOjG6-16">
          <mxGeometry y="51.42" width="60" height="10" as="geometry" />
        </mxCell>
        <mxCell id="j1WD4EWTUh1aqAafOjG6-17" value="" style="group" vertex="1" connectable="0" parent="1">
          <mxGeometry x="300" y="210" width="60" height="86.42" as="geometry" />
        </mxCell>
        <mxCell id="j1WD4EWTUh1aqAafOjG6-18" value="" style="shape=image;verticalLabelPosition=bottom;labelBackgroundColor=default;verticalAlign=top;aspect=fixed;imageAspect=0;image=data:image/svg+xml,PHN2ZyB4bWxuczp4bGluaz0iaHR0cDovL3d3dy53My5vcmcvMTk5OS94bGluayIgeG1sbnM9Imh0dHA6Ly93d3cudzMub3JnLzIwMDAvc3ZnIiBzdHlsZT0iZmlsbC1ydWxlOmV2ZW5vZGQ7Y2xpcC1ydWxlOmV2ZW5vZGQ7c3Ryb2tlLWxpbmVqb2luOnJvdW5kO3N0cm9rZS1taXRlcmxpbWl0OjI7IiB4bWw6c3BhY2U9InByZXNlcnZlIiB2ZXJzaW9uPSIxLjEiIHZpZXdCb3g9IjAgMCAxMTQgMzQ2IiBoZWlnaHQ9IjEwMCUiIHdpZHRoPSIxMDAlIj4mI3hhOyAgICA8ZyB0cmFuc2Zvcm09Im1hdHJpeCgxLDAsMCwxLC0yMjQyLC00MSkiPiYjeGE7ICAgICAgICA8ZyBpZD0i5Zu+5bGCLTEiPiYjeGE7ICAgICAgICA8L2c+JiN4YTsgICAgICAgIDxnIHRyYW5zZm9ybT0ibWF0cml4KDAuOTkwMjIxLDAsMCwwLjkwNTk5NiwtMTguMzcxNSwtMTYwNS4xMSkiIGlkPSLnlLvmnb8xIj4mI3hhOyAgICAgICAgICAgIDxyZWN0IHN0eWxlPSJmaWxsOm5vbmU7IiBoZWlnaHQ9IjE0MTcuMzIiIHdpZHRoPSIyNDM0LjcxIiB5PSIxNzcxLjY1IiB4PSIxOC41NTMiLz4mI3hhOyAgICAgICAgICAgIDxnIHRyYW5zZm9ybT0ibWF0cml4KDAuOTQ0NjAyLC0wLjM5MDM4LDAuMzU3MTc2LDEuMDMyNDIsLTUwNi4xMyw1OTMuNDM2KSI+JiN4YTsgICAgICAgICAgICAgICAgPGc+JiN4YTsgICAgICAgICAgICAgICAgICAgIDxnIHRyYW5zZm9ybT0ibWF0cml4KDIuNTM3NTgsMCwwLDIuNTM3NTgsMTU4OC43LDIwMzIuNjUpIj4mI3hhOyAgICAgICAgICAgICAgICAgICAgICAgIDxnIHRyYW5zZm9ybT0ibWF0cml4KDEsMCwwLDEsMTUyLjk3MiwwLjIwMDEpIj4mI3hhOyAgICAgICAgICAgICAgICAgICAgICAgICAgICA8cGF0aCBzdHlsZT0iZmlsbDpyZ2IoMjU1LDI1NSwyNTQpO2ZpbGwtcnVsZTpub256ZXJvOyIgZD0iTTAsMjExLjY4N0MwLDIxMS42ODcgNjAuOTUxLDIxMS42ODcgNTAuOTU5LDIxMS42ODdDNTAuODA1LDIxMC44OCA1MC44NDgsMjA5Ljk2NCA1MC40NjksMjA5LjI4MUM0MC4wMTEsMTkwLjM5MyAzMC45NzQsMTcwLjc3NCAyMC43MywxNTEuNzY0QzE1LjM2NCwxNDEuODA2IDkuOTYzLDEzMS40MzUgMTEuMTE5LDExOS4yOTNDMTIuNzYzLDEwMi4wMiA1Ljg3NCw4Ni44MyAtMC44NzQsNzEuNjQ3Qy0yLjI4Niw2OC40NyAtNC4yMDksNjUuNDk3IC0zLjg2Nyw2MS44MDZDLTMuOTU4LDU5Ljg4IC0zLjAxOSw1Ny40MTYgLTQuOTg5LDU2LjI3MUMtNy43MTUsNTQuNjg3IC0xMC4yMTgsNTYuNzEzIC0xMi45ODEsNTguMzEyQy0xMi45ODEsNDcuMTMyIC0xMi45NDQsMzYuNTEyIC0xMy4wMTgsMjUuODkzQy0xMy4wMywyNC4wNiAtMTIuMTczLDIxLjc0MiAtMTQuODM4LDIwLjc4MUMtMTUuODMzLDE4LjQyIC0xNS44NjYsMTUuNTA1IC0xOS43NSwxNS40MjhDLTM0LjI4OSwxNS4xNCAtNDguODI3LDE0Ljg1NyAtNjMuMzU0LDE1LjYwOUMtNjYuMTUzLDE1Ljc1NCAtNjguOTg1LDE2Ljg1NyAtNjguMjIsMjAuODEzQy03MC4zNDIsMjIuMDkzIC02OS45MDQsMjQuMjAyIC02OS45MSwyNi4xNDJDLTY5Ljk0NywzOS4zNDMgLTY5Ljk2NCw1Mi41NDQgLTY5Ljk4OCw2NS43NDZDLTcxLjczNyw2Ni4xNzIgLTczLjUzMSw2Ni40NjkgLTc1LjIyMyw2Ny4wNTlDLTc3LjA4NSw2Ny43MDggLTc4Ljk3LDY4LjQ4MyAtNzkuMDg1LDcwLjk3MUMtNzkuMjAyLDczLjQ5MiAtNzcuNzkxLDc0Ljk1MyAtNzUuNzAxLDc1Ljg4N0MtNzMuOTA5LDc2LjY4OCAtNzIuMDUsNzcuMzQ0IC03MC4yMjEsNzguMDY0Qy03MC4yNDEsNzguNTMzIC03MC4yNjEsNzkgLTcwLjI4MSw3OS40NjlDLTcyLjg1LDc5Ljk4NCAtNzMuOTEsODEuNTQ3IC03NS4yNzgsODMuOTI5Qy03Ny45MjEsODguNTMxIC03NS44OTgsOTEuODU4IC03NC4xMzksOTUuNTgzQy03Ni45MDgsOTYuNjQzIC03NS42NjYsOTguOTY1IC03NS43OTksMTAwLjg1NEMtNzUuMzY0LDEwMy4zNzEgLTc2LjMwMSwxMDYuNzMyIC03Mi4wNywxMDYuOTE1Qy03MS4wMjgsMTA4LjE4NyAtNjcuOTE2LDEwOS40MDcgLTcxLjYzMiwxMTAuOTg3Qy03Ny4yMTIsMTEzLjM1OSAtNzguNDAxLDExNi4zMjMgLTc1LjA5OCwxMjEuNDczQy03Mi44ODgsMTI0LjkxOCAtNjkuNTU2LDEyNy42NCAtNjguNDU4LDEzMS44MDhDLTY4LjgxOSwxMzQuMTQ5IC02Ny41NTYsMTM1LjQxMSAtNjUuNjA4LDEzNi4zN0MtNjIuOTMyLDEzNy42ODggLTYwLjA3MiwxMzcuMjg5IC01Ny4zNzgsMTM3LjAyNkMtNTAuNTgyLDEzNi4zNjMgLTQ0LjczOSwxMzcuNTkgLTQwLjcyNywxNDMuNjdDLTQwLjg4NSwxNDUuNjM2IC0zOS4zNTIsMTQ2LjU5MiAtMzguMjEsMTQ3LjcxOEMtMzIuOTQsMTUyLjkxNiAtMjcuMDkzLDE1Ny41ODEgLTIxLjg5OCwxNjIuNzM4Qy04LjQ3NSwxNzYuMDYzIC00LjQzNywxOTQuMDcxIDAsMjExLjY4NyIvPiYjeGE7ICAgICAgICAgICAgICAgICAgICAgICAgPC9nPiYjeGE7ICAgICAgICAgICAgICAgICAgICAgICAgPGcgdHJhbnNmb3JtPSJtYXRyaXgoMSwwLDAsMSwxNDkuMTA1LDIwOC40MTUpIj4mI3hhOyAgICAgICAgICAgICAgICAgICAgICAgICAgICA8cGF0aCBzdHlsZT0iZmlsbDpyZ2IoMjQ5LDIyMSwyMDcpO2ZpbGwtcnVsZTpub256ZXJvOyIgZD0iTTAsLTE0Ni40MDlDLTAuMzQyLC0xNDIuNzE4IDEuNTgyLC0xMzkuNzQ1IDIuOTk0LC0xMzYuNTY4QzkuNzQxLC0xMjEuMzg1IDE2LjYzLC0xMDYuMTk1IDE0Ljk4NiwtODguOTIyQzEzLjgzLC03Ni43OCAxOS4yMzEsLTY2LjQwOSAyNC41OTgsLTU2LjQ1MUMzNC44NDEsLTM3LjQ0MSA0My44NzgsLTE3LjgyMiA1NC4zMzYsMS4wNjZDNTQuNzE1LDEuNzQ5IDU0LjY3MiwyLjY2NSA1NC44MjYsMy40NzJMMTYuODU3LDMuNDcyQzE2LjY1MiwtMC4zNjUgMTQuNDU3LC0zLjMwOSAxMi41MjQsLTYuNDAxQzEwLjcyLC05LjI4OCA3LjYzLC0xMi42NjcgOS41NTUsLTE1Ljc1N0MxMi40NjEsLTIwLjQyMiA5Ljc3LC0yMS45ODggNi43NDMsLTIzLjk0NEM1Ljc4OCwtMjQuNTYyIDQuNDMyLC0yNC43MDUgMy42ODYsLTI1LjQ3NkMtMS4yNTgsLTMwLjU4NyAtMi4zOTgsLTQxLjIyNyAxLjM5MywtNDcuODc5QzMuMjg4LC01MS4yMDMgMy45MzUsLTU0LjA0NyAwLjk3NCwtNTcuMTlDLTAuODkyLC01OS4xNzIgLTEuMDA3LC02Mi4zMjQgMC43NjMsLTY0LjAxOUMyLjk3OCwtNjYuMTQgMi43NTgsLTY4LjM2NyAyLjg2MSwtNzAuODA5QzIuOTIyLC03Mi4yNyAyLjMsLTc0LjEzMiAzLjY0OCwtNzUuMDU0QzYuMjI4LC03Ni44MTcgNS44NDUsLTc5LjI5OSA1Ljg2NiwtODEuNzYzQzUuOTM1LC04OS44NTQgNi40NDIsLTk3LjgwOCAxMC40NTUsLTEwNS4xOTRDMTEuMjk1LC0xMDYuNzQgMTEuNDkyLC0xMTAuMDggMTAuNTM5LC0xMTAuODg4QzcuNTM1LC0xMTMuNDM0IDcuNTc1LC0xMTcuMjY5IDUuNjM2LC0xMjAuMjEzQzQuMDkzLC0xMjIuNTU1IDIuMzIsLTEyNC4zNzcgLTAuMDEsLTEyNS42MjVDLTIuNzY0LC0xMjcuMDk4IC01Ljg1NSwtMTI1LjczNiAtNS41MjUsLTEyMy4xNzhDLTUuMDE4LC0xMTkuMjQyIC02LjQwNCwtMTE0Ljk2NSAtNC4zOSwtMTExLjQyN0MtMi4zMTQsLTEwNy43OCAtNi44NjMsLTEwNi44MTEgLTYuNjY0LC0xMDQuMTE3Qy03LjUzMiwtMTA0LjIwNiAtOS4xMSwtMTAzLjQzOCAtOS4wMjEsLTEwNC45MDNDLTguNzQ3LC0xMDkuNDQ5IC0xMC4zMTYsLTExNC4xNTQgLTcuOTc4LC0xMTguNTM0Qy03LjA5OCwtMTE4LjY3OSAtNi4zOTgsLTExOC45NDYgLTYuNjQyLC0xMjAuMDlDLTcuMjIsLTEyMi44MDEgLTcuNzY2LC0xMjUuNTE4IC04LjMyNSwtMTI4LjIzM0MtNS41NjksLTEyOC43MjkgLTQuOTI1LC0xMzAuMDk5IC01LjczNCwtMTMyLjg3NEMtNi44NzgsLTEzNi44MDEgLTcuODE1LC0xNDAuNjU5IC02LjA0NiwtMTQ0Ljk4MkMtNC4zNTYsLTE0OS4xMTMgLTIuOTY4LC0xNDkuODgxIDAsLTE0Ni40MDkiLz4mI3hhOyAgICAgICAgICAgICAgICAgICAgICAgIDwvZz4mI3hhOyAgICAgICAgICAgICAgICAgICAgICAgIDxnIHRyYW5zZm9ybT0ibWF0cml4KDEsMCwwLDEsMTQ5LjEwNSwxNzAuODYyKSI+JiN4YTsgICAgICAgICAgICAgICAgICAgICAgICAgICAgPHBhdGggc3R5bGU9ImZpbGw6cmdiKDI1NSwyMjksMjE3KTtmaWxsLXJ1bGU6bm9uemVybztzdHJva2U6cmdiKDI1NSwyMTYsMTk2KTtzdHJva2Utd2lkdGg6MC4zOXB4OyIgZD0iTTAsLTEwOC44NTZDLTIuOTY4LC0xMTIuMzI4IC00LjM1NiwtMTExLjU2IC02LjA0NiwtMTA3LjQyOUMtNy44MTUsLTEwMy4xMDYgLTYuODc4LC05OS4yNDggLTUuNzM0LC05NS4zMjFDLTQuOTI1LC05Mi41NDYgLTUuNTY5LC05MS4xNzYgLTguMzI0LC05MC42OEMtOC4zMjMsLTkwLjY4MSAtOC4xODcsLTkwLjczOSAtOC4xODcsLTkwLjczOUMtOC4yNTMsLTkxLjQ4OCAtNy45NzMsLTkyLjQ2MiAtOS4yNzMsLTkyLjQwOEwtOS4wNTEsLTkwLjYyNEMtOC43NzIsLTg3LjQwMSAtMTAuMDg2LC04NC4wMDEgLTcuOTc4LC04MC45ODFDLTEwLjMxNiwtNzYuNjAxIC04Ljc0NywtNzEuODk2IC05LjAyMSwtNjcuMzVDLTkuMTEsLTY1Ljg4NSAtNy41MzIsLTY2LjY1MyAtNi42NjQsLTY2LjU2NEMtNi44NjMsLTY5LjI1OCAtMi4zMTQsLTcwLjIyNyAtNC4zOSwtNzMuODc0Qy02LjQwNCwtNzcuNDEyIC01LjAxOCwtODEuNjg5IC01LjUyNSwtODUuNjI1Qy01Ljg1NSwtODguMTgzIC0yLjc2NCwtODkuNTQ1IC0wLjAxLC04OC4wNzJDMi4zMiwtODYuODI0IDQuMDkzLC04NS4wMDIgNS42MzYsLTgyLjY2QzcuNTc1LC03OS43MTYgNy41MzUsLTc1Ljg4MSAxMC41MzksLTczLjMzNUMxMS40OTIsLTcyLjUyNyAxMS4yOTUsLTY5LjE4NyAxMC40NTUsLTY3LjY0MUM2LjQ0MiwtNjAuMjU1IDUuOTM1LC01Mi4zMDEgNS44NjYsLTQ0LjIxQzUuODQ1LC00MS43NDYgNi4yMjgsLTM5LjI2NCAzLjY0OCwtMzcuNTAxQzIuMywtMzYuNTc5IDIuOTIyLC0zNC43MTcgMi44NjEsLTMzLjI1NkMyLjc1OCwtMzAuODE0IDIuOTc4LC0yOC41ODcgMC43NjMsLTI2LjQ2NkMtMS4wMDcsLTI0Ljc3MSAtMC44OTIsLTIxLjYxOSAwLjk3NCwtMTkuNjM3QzMuOTM1LC0xNi40OTQgMy4yODgsLTEzLjY1IDEuMzkzLC0xMC4zMjZDLTIuMzk4LC0zLjY3NCAtMS4yNTgsNi45NjYgMy42ODYsMTIuMDc3QzQuNDMyLDEyLjg0OCA1Ljc4OCwxMi45OTEgNi43NDMsMTMuNjA5QzkuNzcsMTUuNTY1IDEyLjQ2MSwxNy4xMzEgOS41NTUsMjEuNzk2QzcuNjMsMjQuODg2IDEwLjcyLDI4LjI2NSAxMi41MjQsMzEuMTUyQzE0LjQ1NywzNC4yNDQgMTYuNjUyLDM3LjE4OCAxNi44NTcsNDEuMDI1TDMuODY3LDQxLjAyNUMtMC41NywyMy40MDkgLTQuNjA4LDUuNDAxIC0xOC4wMzEsLTcuOTI0Qy0yMy4yMjYsLTEzLjA4MiAtMjkuMDczLC0xNy43NDcgLTM0LjM0MywtMjIuOTQ0Qy0zNS40ODQsLTI0LjA3IC0zNy4wMTgsLTI1LjAyNiAtMzYuODYsLTI2Ljk5MUMtMzEuMzk2LC0yMy44MzkgLTI1LjkzMiwtMjUuODQxIC0yMC40OTIsLTI3LjA1Qy0xNS4yNTgsLTI4LjIxMiAtMTEuMDg0LC0zNi4wNDkgLTEzLjM5MSwtNDAuMjMxQy0xMy4zOTQsLTUwLjg2MyAtMTAuNjk4LC02MS4yODYgLTExLjAzOCwtNzEuOTZDLTExLjM1MSwtODEuNzUxIC0xMS45ODUsLTkxLjYyNCAtMTEuNjQ2LC0xMDEuMzE4Qy0xMS4xNjksLTExNC45NTMgLTkuMTE0LC0xMTIuMzUgLTkuMTE0LC0xMTIuMzVDLTkuMTE0LC0xMTIuMzUgLTMuODQ4LC0xMTUuOTc1IC0xLjEyMiwtMTE0LjM5MUMwLjg0OSwtMTEzLjI0NiAtMC4wOTEsLTExMC43ODIgMCwtMTA4Ljg1NiIvPiYjeGE7ICAgICAgICAgICAgICAgICAgICAgICAgPC9nPiYjeGE7ICAgICAgICAgICAgICAgICAgICA8L2c+JiN4YTsgICAgICAgICAgICAgICAgPC9nPiYjeGE7ICAgICAgICAgICAgPC9nPiYjeGE7ICAgICAgICAgICAgPGcgdHJhbnNmb3JtPSJtYXRyaXgoMC4zNjczODQsLTAuMjI0OTM4LDAuMjA1ODA1LDAuNDAxNTM4LDE1NjUuNTIsMTUxOC40NykiPiYjeGE7ICAgICAgICAgICAgICAgIDxnIHRyYW5zZm9ybT0ibWF0cml4KDAuMTU0Mzk4LDAuMDgwNjU2NCwtMC4wNjUxMzIsMC4xMjQ2OCw4OTMuNzMxLDE3NzguMzMpIj4mI3hhOyAgICAgICAgICAgICAgICAgICAgPGVsbGlwc2Ugc3R5bGU9ImZpbGw6cmdiKDIxOCwyMDMsMTYzKTsiIHJ5PSIzNS44NzUiIHJ4PSI1MC40MjciIGN5PSIyMTMwLjU1IiBjeD0iOTA5LjcyMiIvPiYjeGE7ICAgICAgICAgICAgICAgIDwvZz4mI3hhOyAgICAgICAgICAgICAgICA8ZyB0cmFuc2Zvcm09Im1hdHJpeCgwLjE1NDA1OCwwLjA4MTI0NjYsLTAuMDU4NjE0OSwwLjExMzM5Miw4OTYuMTgyLDE4MTAuMDMpIj4mI3hhOyAgICAgICAgICAgICAgICAgICAgPGVsbGlwc2Ugc3R5bGU9ImZpbGw6cmdiKDI1NSwxOTcsNDcpOyIgcnk9IjM1Ljg3NSIgcng9IjUwLjQyNyIgY3k9IjIxMzAuNTUiIGN4PSI5MDkuNzIyIi8+JiN4YTsgICAgICAgICAgICAgICAgPC9nPiYjeGE7ICAgICAgICAgICAgICAgIDxnIHRyYW5zZm9ybT0ibWF0cml4KDAuNzkwNDEsMC40MzYzNDcsLTAuNzQyMzUzLDEuMzU3OTEsMjM3NS4xNywtMTQ0My4yMSkiPiYjeGE7ICAgICAgICAgICAgICAgICAgICA8cmVjdCBzdHlsZT0iZmlsbDpyZ2IoMjU1LDE5Nyw0Nyk7IiBoZWlnaHQ9IjQzMC40NTkiIHdpZHRoPSIxNy41OTMiIHk9IjIwMzkuMzYiIHg9IjQ3MS44NDEiLz4mI3hhOyAgICAgICAgICAgICAgICA8L2c+JiN4YTsgICAgICAgICAgICAgICAgPGcgdHJhbnNmb3JtPSJtYXRyaXgoMC40Mzc3MTEsMC4yNDE2MzksLTAuNzMzMDE5LDEuMzQwODQsMjUxMy4wMSwtMTMyMi4zOCkiPiYjeGE7ICAgICAgICAgICAgICAgICAgICA8cmVjdCBzdHlsZT0iZmlsbDpyZ2IoNiwxNzIsMTU4KTsiIGhlaWdodD0iNDMwLjQ1OSIgd2lkdGg9IjE3LjU5MyIgeT0iMjAzOS4zNiIgeD0iNDcxLjg0MSIvPiYjeGE7ICAgICAgICAgICAgICAgIDwvZz4mI3hhOyAgICAgICAgICAgICAgICA8ZyB0cmFuc2Zvcm09Im1hdHJpeCgwLjU3MjIxOSwwLjMxNTg5NCwtMC43MzMxNjIsMS4zNDExLDI0ODAuNSwtMTM0MC4xOSkiPiYjeGE7ICAgICAgICAgICAgICAgICAgICA8cmVjdCBzdHlsZT0iZmlsbDpyZ2IoMTM5LDAsMjU1KTsiIGhlaWdodD0iNDMwLjQ1OSIgd2lkdGg9IjE3LjU5MyIgeT0iMjAzOS4zNiIgeD0iNDcxLjg0MSIvPiYjeGE7ICAgICAgICAgICAgICAgIDwvZz4mI3hhOyAgICAgICAgICAgICAgICA8ZyB0cmFuc2Zvcm09Im1hdHJpeCgwLjQxOTg2MiwwLjIzMTc4NSwtMC43NDk0NzYsMS4zNzA5NCwyNTc0Ljc3LC0xMzY3LjcxKSI+JiN4YTsgICAgICAgICAgICAgICAgICAgIDxyZWN0IHN0eWxlPSJmaWxsOnJnYigxMDgsMTA0LDk0KTsiIGhlaWdodD0iNDMwLjQ1OSIgd2lkdGg9IjE3LjU5MyIgeT0iMjAzOS4zNiIgeD0iNDcxLjg0MSIvPiYjeGE7ICAgICAgICAgICAgICAgIDwvZz4mI3hhOyAgICAgICAgICAgICAgICA8ZyB0cmFuc2Zvcm09Im1hdHJpeCgwLjUwODcwOSwwLjI4MDgzMywtMC43NDUzOTUsMS4zNjM0OCwyNDk1LjgsLTEzOTEuOTgpIj4mI3hhOyAgICAgICAgICAgICAgICAgICAgPHJlY3Qgc3R5bGU9ImZpbGw6cmdiKDIwMCwyNTUsNDcpO3N0cm9rZTpyZ2IoMjA5LDI1NSwwKTtzdHJva2Utd2lkdGg6Mi4wNHB4O3N0cm9rZS1saW5lY2FwOnJvdW5kO3N0cm9rZS1taXRlcmxpbWl0OjEuNTsiIGhlaWdodD0iNDMwLjQ1OSIgd2lkdGg9IjE3LjU5MyIgeT0iMjAzOS4zNiIgeD0iNDcxLjg0MSIvPiYjeGE7ICAgICAgICAgICAgICAgIDwvZz4mI3hhOyAgICAgICAgICAgICAgICA8ZyB0cmFuc2Zvcm09Im1hdHJpeCgwLjQzNzcxMSwwLjI0MTYzOSwtMC43NTc2MzEsMS4zODU4NiwyNTQwLjA1LC0xNDI5LjU3KSI+JiN4YTsgICAgICAgICAgICAgICAgICAgIDxyZWN0IHN0eWxlPSJmaWxsOnJnYigyNTUsMTk3LDQ3KTsiIGhlaWdodD0iNDMwLjQ1OSIgd2lkdGg9IjE3LjU5MyIgeT0iMjAzOS4zNiIgeD0iNDcxLjg0MSIvPiYjeGE7ICAgICAgICAgICAgICAgIDwvZz4mI3hhOyAgICAgICAgICAgICAgICA8ZyB0cmFuc2Zvcm09Im1hdHJpeCg1Ljk2NzIxLDMuMjc4OTYsLTAuNzQ3OTcyLDEuMzYxMiwtMTA2LjY4NCwtMjgyMC4wNikiPiYjeGE7ICAgICAgICAgICAgICAgICAgICA8cmVjdCBzdHlsZT0iZmlsbDpyZ2IoMTcwLDE3MCwxNzApO2ZpbGwtb3BhY2l0eTowLjcyO3N0cm9rZTpibGFjaztzdHJva2Utd2lkdGg6MS4wMXB4O3N0cm9rZS1saW5lY2FwOnJvdW5kO3N0cm9rZS1taXRlcmxpbWl0OjEuNTsiIGhlaWdodD0iNDMwLjQ1OSIgd2lkdGg9IjE3LjU5MyIgeT0iMjAzOS4zNiIgeD0iNDcxLjg0MSIvPiYjeGE7ICAgICAgICAgICAgICAgIDwvZz4mI3hhOyAgICAgICAgICAgICAgICA8ZyB0cmFuc2Zvcm09Im1hdHJpeCgwLjc1MzU2MywwLjQxNjM4NiwtMC40ODM2MzYsMC44NzUyNjksMTMzNC43MiwtMTI3Ljc2OSkiPiYjeGE7ICAgICAgICAgICAgICAgICAgICA8ZWxsaXBzZSBzdHlsZT0iZmlsbDpyZ2IoMTcwLDE3MCwxNzApO3N0cm9rZTpibGFjaztzdHJva2Utd2lkdGg6NS4zNXB4O3N0cm9rZS1saW5lY2FwOnJvdW5kO3N0cm9rZS1taXRlcmxpbWl0OjEuNTsiIHJ5PSIzMi41MzUiIHJ4PSI2OS45ODYiIGN5PSIyMTYzLjciIGN4PSI4MzMuNTY4Ii8+JiN4YTsgICAgICAgICAgICAgICAgPC9nPiYjeGE7ICAgICAgICAgICAgICAgIDxnIHRyYW5zZm9ybT0ibWF0cml4KDAuNjI5NzM0LDAuMzYzNTc3LC0wLjAxMjM0MDIsMC4wMjEzNzM5LDY1Ny4yMTcsMTkxMC4zMSkiPiYjeGE7ICAgICAgICAgICAgICAgICAgICA8cmVjdCBzdHlsZT0iZmlsbDpyZ2IoMTE2LDExNiwxMTYpOyIgaGVpZ2h0PSI0MzAuNDU5IiB3aWR0aD0iMTcuNTkzIiB5PSIyMDM5LjM2IiB4PSI0NzEuODQxIi8+JiN4YTsgICAgICAgICAgICAgICAgPC9nPiYjeGE7ICAgICAgICAgICAgICAgIDxnIHRyYW5zZm9ybT0ibWF0cml4KDAuNjI5NzM0LDAuMzYzNTc3LC0wLjAxMzc4OTEsMC4wMjM4ODM0LDY0NC43NTcsMTg4NS42NCkiPiYjeGE7ICAgICAgICAgICAgICAgICAgICA8cmVjdCBzdHlsZT0iZmlsbDpyZ2IoNyw3LDcpOyIgaGVpZ2h0PSI0MzAuNDU5IiB3aWR0aD0iMTcuNTkzIiB5PSIyMDM5LjM2IiB4PSI0NzEuODQxIi8+JiN4YTsgICAgICAgICAgICAgICAgPC9nPiYjeGE7ICAgICAgICAgICAgICAgIDxnIHRyYW5zZm9ybT0ibWF0cml4KDAuNjI5NzM0LDAuMzYzNTc3LC0wLjAxMzc4OTEsMC4wMjM4ODM0LDYzNC41NzQsMTkwMi4zMikiPiYjeGE7ICAgICAgICAgICAgICAgICAgICA8cmVjdCBzdHlsZT0iZmlsbDpyZ2IoMTkzLDE5MywxOTMpO3N0cm9rZTpyZ2IoMTkyLDE5MiwxOTIpO3N0cm9rZS13aWR0aDo0LjY2cHg7c3Ryb2tlLWxpbmVjYXA6cm91bmQ7c3Ryb2tlLW1pdGVybGltaXQ6MS41OyIgaGVpZ2h0PSI0MzAuNDU5IiB3aWR0aD0iMTcuNTkzIiB5PSIyMDM5LjM2IiB4PSI0NzEuODQxIi8+JiN4YTsgICAgICAgICAgICAgICAgPC9nPiYjeGE7ICAgICAgICAgICAgICAgIDxnIHRyYW5zZm9ybT0ibWF0cml4KDAuNjI5NzM0LDAuMzYzNTc3LC0wLjAwOTk0NjUzLDAuMDE3MjI3OSw2MDkuNzgyLDE4OTguODgpIj4mI3hhOyAgICAgICAgICAgICAgICAgICAgPHJlY3Qgc3R5bGU9ImZpbGw6cmdiKDExNiwxMTYsMTE2KTsiIGhlaWdodD0iNDMwLjQ1OSIgd2lkdGg9IjE3LjU5MyIgeT0iMjAzOS4zNiIgeD0iNDcxLjg0MSIvPiYjeGE7ICAgICAgICAgICAgICAgIDwvZz4mI3hhOyAgICAgICAgICAgICAgICA8ZyB0cmFuc2Zvcm09Im1hdHJpeCgwLjYyOTczNCwwLjM2MzU3NywtMC4wMTU2NDc2LDAuMDI3MTAyNSw2NzguOTAxLDE4NzkuMDgpIj4mI3hhOyAgICAgICAgICAgICAgICAgICAgPHJlY3Qgc3R5bGU9ImZpbGw6cmdiKDExNiwxMTYsMTE2KTsiIGhlaWdodD0iNDMwLjQ1OSIgd2lkdGg9IjE3LjU5MyIgeT0iMjAzOS4zNiIgeD0iNDcxLjg0MSIvPiYjeGE7ICAgICAgICAgICAgICAgIDwvZz4mI3hhOyAgICAgICAgICAgICAgICA8ZyB0cmFuc2Zvcm09Im1hdHJpeCgwLjYyOTczNCwwLjM2MzU3NywtMC4wMTY1NDE3LDAuMDI4NjUxLDY1OS4zNjcsMTg1OS4zNykiPiYjeGE7ICAgICAgICAgICAgICAgICAgICA8cmVjdCBzdHlsZT0iZmlsbDpyZ2IoMTE2LDExNiwxMTYpOyIgaGVpZ2h0PSI0MzAuNDU5IiB3aWR0aD0iMTcuNTkzIiB5PSIyMDM5LjM2IiB4PSI0NzEuODQxIi8+JiN4YTsgICAgICAgICAgICAgICAgPC9nPiYjeGE7ICAgICAgICAgICAgICAgIDxnIHRyYW5zZm9ybT0ibWF0cml4KDAuNjI5NzM0LDAuMzYzNTc3LC0wLjAxODE3NDksMC4wMzE0Nzk4LDY0MS42NzksMTg0My42MykiPiYjeGE7ICAgICAgICAgICAgICAgICAgICA8cmVjdCBzdHlsZT0iZmlsbDpyZ2IoMTE2LDExNiwxMTYpOyIgaGVpZ2h0PSI0MzAuNDU5IiB3aWR0aD0iMTcuNTkzIiB5PSIyMDM5LjM2IiB4PSI0NzEuODQxIi8+JiN4YTsgICAgICAgICAgICAgICAgPC9nPiYjeGE7ICAgICAgICAgICAgPC9nPiYjeGE7ICAgICAgICAgICAgPGcgaWQ9IuWbvuWxgi0xMSI+JiN4YTsgICAgICAgICAgICA8L2c+JiN4YTsgICAgICAgIDwvZz4mI3hhOyAgICA8L2c+JiN4YTs8L3N2Zz4=;rotation=0;" vertex="1" parent="j1WD4EWTUh1aqAafOjG6-17">
          <mxGeometry x="36" width="24" height="72.84" as="geometry" />
        </mxCell>
        <mxCell id="j1WD4EWTUh1aqAafOjG6-19" value="" style="rounded=0;whiteSpace=wrap;html=1;fillColor=none;" vertex="1" parent="j1WD4EWTUh1aqAafOjG6-17">
          <mxGeometry y="26.42" width="60" height="60" as="geometry" />
        </mxCell>
        <mxCell id="j1WD4EWTUh1aqAafOjG6-20" value="" style="shape=tape;whiteSpace=wrap;html=1;size=1;" vertex="1" parent="j1WD4EWTUh1aqAafOjG6-17">
          <mxGeometry y="51.42" width="60" height="10" as="geometry" />
        </mxCell>
        <mxCell id="j1WD4EWTUh1aqAafOjG6-21" value="" style="group" vertex="1" connectable="0" parent="1">
          <mxGeometry x="300" y="310" width="60" height="86.42" as="geometry" />
        </mxCell>
        <mxCell id="j1WD4EWTUh1aqAafOjG6-22" value="" style="shape=image;verticalLabelPosition=bottom;labelBackgroundColor=default;verticalAlign=top;aspect=fixed;imageAspect=0;image=data:image/svg+xml,PHN2ZyB4bWxuczp4bGluaz0iaHR0cDovL3d3dy53My5vcmcvMTk5OS94bGluayIgeG1sbnM9Imh0dHA6Ly93d3cudzMub3JnLzIwMDAvc3ZnIiBzdHlsZT0iZmlsbC1ydWxlOmV2ZW5vZGQ7Y2xpcC1ydWxlOmV2ZW5vZGQ7c3Ryb2tlLWxpbmVqb2luOnJvdW5kO3N0cm9rZS1taXRlcmxpbWl0OjI7IiB4bWw6c3BhY2U9InByZXNlcnZlIiB2ZXJzaW9uPSIxLjEiIHZpZXdCb3g9IjAgMCAxMTQgMzQ2IiBoZWlnaHQ9IjEwMCUiIHdpZHRoPSIxMDAlIj4mI3hhOyAgICA8ZyB0cmFuc2Zvcm09Im1hdHJpeCgxLDAsMCwxLC0yMjQyLC00MSkiPiYjeGE7ICAgICAgICA8ZyBpZD0i5Zu+5bGCLTEiPiYjeGE7ICAgICAgICA8L2c+JiN4YTsgICAgICAgIDxnIHRyYW5zZm9ybT0ibWF0cml4KDAuOTkwMjIxLDAsMCwwLjkwNTk5NiwtMTguMzcxNSwtMTYwNS4xMSkiIGlkPSLnlLvmnb8xIj4mI3hhOyAgICAgICAgICAgIDxyZWN0IHN0eWxlPSJmaWxsOm5vbmU7IiBoZWlnaHQ9IjE0MTcuMzIiIHdpZHRoPSIyNDM0LjcxIiB5PSIxNzcxLjY1IiB4PSIxOC41NTMiLz4mI3hhOyAgICAgICAgICAgIDxnIHRyYW5zZm9ybT0ibWF0cml4KDAuOTQ0NjAyLC0wLjM5MDM4LDAuMzU3MTc2LDEuMDMyNDIsLTUwNi4xMyw1OTMuNDM2KSI+JiN4YTsgICAgICAgICAgICAgICAgPGc+JiN4YTsgICAgICAgICAgICAgICAgICAgIDxnIHRyYW5zZm9ybT0ibWF0cml4KDIuNTM3NTgsMCwwLDIuNTM3NTgsMTU4OC43LDIwMzIuNjUpIj4mI3hhOyAgICAgICAgICAgICAgICAgICAgICAgIDxnIHRyYW5zZm9ybT0ibWF0cml4KDEsMCwwLDEsMTUyLjk3MiwwLjIwMDEpIj4mI3hhOyAgICAgICAgICAgICAgICAgICAgICAgICAgICA8cGF0aCBzdHlsZT0iZmlsbDpyZ2IoMjU1LDI1NSwyNTQpO2ZpbGwtcnVsZTpub256ZXJvOyIgZD0iTTAsMjExLjY4N0MwLDIxMS42ODcgNjAuOTUxLDIxMS42ODcgNTAuOTU5LDIxMS42ODdDNTAuODA1LDIxMC44OCA1MC44NDgsMjA5Ljk2NCA1MC40NjksMjA5LjI4MUM0MC4wMTEsMTkwLjM5MyAzMC45NzQsMTcwLjc3NCAyMC43MywxNTEuNzY0QzE1LjM2NCwxNDEuODA2IDkuOTYzLDEzMS40MzUgMTEuMTE5LDExOS4yOTNDMTIuNzYzLDEwMi4wMiA1Ljg3NCw4Ni44MyAtMC44NzQsNzEuNjQ3Qy0yLjI4Niw2OC40NyAtNC4yMDksNjUuNDk3IC0zLjg2Nyw2MS44MDZDLTMuOTU4LDU5Ljg4IC0zLjAxOSw1Ny40MTYgLTQuOTg5LDU2LjI3MUMtNy43MTUsNTQuNjg3IC0xMC4yMTgsNTYuNzEzIC0xMi45ODEsNTguMzEyQy0xMi45ODEsNDcuMTMyIC0xMi45NDQsMzYuNTEyIC0xMy4wMTgsMjUuODkzQy0xMy4wMywyNC4wNiAtMTIuMTczLDIxLjc0MiAtMTQuODM4LDIwLjc4MUMtMTUuODMzLDE4LjQyIC0xNS44NjYsMTUuNTA1IC0xOS43NSwxNS40MjhDLTM0LjI4OSwxNS4xNCAtNDguODI3LDE0Ljg1NyAtNjMuMzU0LDE1LjYwOUMtNjYuMTUzLDE1Ljc1NCAtNjguOTg1LDE2Ljg1NyAtNjguMjIsMjAuODEzQy03MC4zNDIsMjIuMDkzIC02OS45MDQsMjQuMjAyIC02OS45MSwyNi4xNDJDLTY5Ljk0NywzOS4zNDMgLTY5Ljk2NCw1Mi41NDQgLTY5Ljk4OCw2NS43NDZDLTcxLjczNyw2Ni4xNzIgLTczLjUzMSw2Ni40NjkgLTc1LjIyMyw2Ny4wNTlDLTc3LjA4NSw2Ny43MDggLTc4Ljk3LDY4LjQ4MyAtNzkuMDg1LDcwLjk3MUMtNzkuMjAyLDczLjQ5MiAtNzcuNzkxLDc0Ljk1MyAtNzUuNzAxLDc1Ljg4N0MtNzMuOTA5LDc2LjY4OCAtNzIuMDUsNzcuMzQ0IC03MC4yMjEsNzguMDY0Qy03MC4yNDEsNzguNTMzIC03MC4yNjEsNzkgLTcwLjI4MSw3OS40NjlDLTcyLjg1LDc5Ljk4NCAtNzMuOTEsODEuNTQ3IC03NS4yNzgsODMuOTI5Qy03Ny45MjEsODguNTMxIC03NS44OTgsOTEuODU4IC03NC4xMzksOTUuNTgzQy03Ni45MDgsOTYuNjQzIC03NS42NjYsOTguOTY1IC03NS43OTksMTAwLjg1NEMtNzUuMzY0LDEwMy4zNzEgLTc2LjMwMSwxMDYuNzMyIC03Mi4wNywxMDYuOTE1Qy03MS4wMjgsMTA4LjE4NyAtNjcuOTE2LDEwOS40MDcgLTcxLjYzMiwxMTAuOTg3Qy03Ny4yMTIsMTEzLjM1OSAtNzguNDAxLDExNi4zMjMgLTc1LjA5OCwxMjEuNDczQy03Mi44ODgsMTI0LjkxOCAtNjkuNTU2LDEyNy42NCAtNjguNDU4LDEzMS44MDhDLTY4LjgxOSwxMzQuMTQ5IC02Ny41NTYsMTM1LjQxMSAtNjUuNjA4LDEzNi4zN0MtNjIuOTMyLDEzNy42ODggLTYwLjA3MiwxMzcuMjg5IC01Ny4zNzgsMTM3LjAyNkMtNTAuNTgyLDEzNi4zNjMgLTQ0LjczOSwxMzcuNTkgLTQwLjcyNywxNDMuNjdDLTQwLjg4NSwxNDUuNjM2IC0zOS4zNTIsMTQ2LjU5MiAtMzguMjEsMTQ3LjcxOEMtMzIuOTQsMTUyLjkxNiAtMjcuMDkzLDE1Ny41ODEgLTIxLjg5OCwxNjIuNzM4Qy04LjQ3NSwxNzYuMDYzIC00LjQzNywxOTQuMDcxIDAsMjExLjY4NyIvPiYjeGE7ICAgICAgICAgICAgICAgICAgICAgICAgPC9nPiYjeGE7ICAgICAgICAgICAgICAgICAgICAgICAgPGcgdHJhbnNmb3JtPSJtYXRyaXgoMSwwLDAsMSwxNDkuMTA1LDIwOC40MTUpIj4mI3hhOyAgICAgICAgICAgICAgICAgICAgICAgICAgICA8cGF0aCBzdHlsZT0iZmlsbDpyZ2IoMjQ5LDIyMSwyMDcpO2ZpbGwtcnVsZTpub256ZXJvOyIgZD0iTTAsLTE0Ni40MDlDLTAuMzQyLC0xNDIuNzE4IDEuNTgyLC0xMzkuNzQ1IDIuOTk0LC0xMzYuNTY4QzkuNzQxLC0xMjEuMzg1IDE2LjYzLC0xMDYuMTk1IDE0Ljk4NiwtODguOTIyQzEzLjgzLC03Ni43OCAxOS4yMzEsLTY2LjQwOSAyNC41OTgsLTU2LjQ1MUMzNC44NDEsLTM3LjQ0MSA0My44NzgsLTE3LjgyMiA1NC4zMzYsMS4wNjZDNTQuNzE1LDEuNzQ5IDU0LjY3MiwyLjY2NSA1NC44MjYsMy40NzJMMTYuODU3LDMuNDcyQzE2LjY1MiwtMC4zNjUgMTQuNDU3LC0zLjMwOSAxMi41MjQsLTYuNDAxQzEwLjcyLC05LjI4OCA3LjYzLC0xMi42NjcgOS41NTUsLTE1Ljc1N0MxMi40NjEsLTIwLjQyMiA5Ljc3LC0yMS45ODggNi43NDMsLTIzLjk0NEM1Ljc4OCwtMjQuNTYyIDQuNDMyLC0yNC43MDUgMy42ODYsLTI1LjQ3NkMtMS4yNTgsLTMwLjU4NyAtMi4zOTgsLTQxLjIyNyAxLjM5MywtNDcuODc5QzMuMjg4LC01MS4yMDMgMy45MzUsLTU0LjA0NyAwLjk3NCwtNTcuMTlDLTAuODkyLC01OS4xNzIgLTEuMDA3LC02Mi4zMjQgMC43NjMsLTY0LjAxOUMyLjk3OCwtNjYuMTQgMi43NTgsLTY4LjM2NyAyLjg2MSwtNzAuODA5QzIuOTIyLC03Mi4yNyAyLjMsLTc0LjEzMiAzLjY0OCwtNzUuMDU0QzYuMjI4LC03Ni44MTcgNS44NDUsLTc5LjI5OSA1Ljg2NiwtODEuNzYzQzUuOTM1LC04OS44NTQgNi40NDIsLTk3LjgwOCAxMC40NTUsLTEwNS4xOTRDMTEuMjk1LC0xMDYuNzQgMTEuNDkyLC0xMTAuMDggMTAuNTM5LC0xMTAuODg4QzcuNTM1LC0xMTMuNDM0IDcuNTc1LC0xMTcuMjY5IDUuNjM2LC0xMjAuMjEzQzQuMDkzLC0xMjIuNTU1IDIuMzIsLTEyNC4zNzcgLTAuMDEsLTEyNS42MjVDLTIuNzY0LC0xMjcuMDk4IC01Ljg1NSwtMTI1LjczNiAtNS41MjUsLTEyMy4xNzhDLTUuMDE4LC0xMTkuMjQyIC02LjQwNCwtMTE0Ljk2NSAtNC4zOSwtMTExLjQyN0MtMi4zMTQsLTEwNy43OCAtNi44NjMsLTEwNi44MTEgLTYuNjY0LC0xMDQuMTE3Qy03LjUzMiwtMTA0LjIwNiAtOS4xMSwtMTAzLjQzOCAtOS4wMjEsLTEwNC45MDNDLTguNzQ3LC0xMDkuNDQ5IC0xMC4zMTYsLTExNC4xNTQgLTcuOTc4LC0xMTguNTM0Qy03LjA5OCwtMTE4LjY3OSAtNi4zOTgsLTExOC45NDYgLTYuNjQyLC0xMjAuMDlDLTcuMjIsLTEyMi44MDEgLTcuNzY2LC0xMjUuNTE4IC04LjMyNSwtMTI4LjIzM0MtNS41NjksLTEyOC43MjkgLTQuOTI1LC0xMzAuMDk5IC01LjczNCwtMTMyLjg3NEMtNi44NzgsLTEzNi44MDEgLTcuODE1LC0xNDAuNjU5IC02LjA0NiwtMTQ0Ljk4MkMtNC4zNTYsLTE0OS4xMTMgLTIuOTY4LC0xNDkuODgxIDAsLTE0Ni40MDkiLz4mI3hhOyAgICAgICAgICAgICAgICAgICAgICAgIDwvZz4mI3hhOyAgICAgICAgICAgICAgICAgICAgICAgIDxnIHRyYW5zZm9ybT0ibWF0cml4KDEsMCwwLDEsMTQ5LjEwNSwxNzAuODYyKSI+JiN4YTsgICAgICAgICAgICAgICAgICAgICAgICAgICAgPHBhdGggc3R5bGU9ImZpbGw6cmdiKDI1NSwyMjksMjE3KTtmaWxsLXJ1bGU6bm9uemVybztzdHJva2U6cmdiKDI1NSwyMTYsMTk2KTtzdHJva2Utd2lkdGg6MC4zOXB4OyIgZD0iTTAsLTEwOC44NTZDLTIuOTY4LC0xMTIuMzI4IC00LjM1NiwtMTExLjU2IC02LjA0NiwtMTA3LjQyOUMtNy44MTUsLTEwMy4xMDYgLTYuODc4LC05OS4yNDggLTUuNzM0LC05NS4zMjFDLTQuOTI1LC05Mi41NDYgLTUuNTY5LC05MS4xNzYgLTguMzI0LC05MC42OEMtOC4zMjMsLTkwLjY4MSAtOC4xODcsLTkwLjczOSAtOC4xODcsLTkwLjczOUMtOC4yNTMsLTkxLjQ4OCAtNy45NzMsLTkyLjQ2MiAtOS4yNzMsLTkyLjQwOEwtOS4wNTEsLTkwLjYyNEMtOC43NzIsLTg3LjQwMSAtMTAuMDg2LC04NC4wMDEgLTcuOTc4LC04MC45ODFDLTEwLjMxNiwtNzYuNjAxIC04Ljc0NywtNzEuODk2IC05LjAyMSwtNjcuMzVDLTkuMTEsLTY1Ljg4NSAtNy41MzIsLTY2LjY1MyAtNi42NjQsLTY2LjU2NEMtNi44NjMsLTY5LjI1OCAtMi4zMTQsLTcwLjIyNyAtNC4zOSwtNzMuODc0Qy02LjQwNCwtNzcuNDEyIC01LjAxOCwtODEuNjg5IC01LjUyNSwtODUuNjI1Qy01Ljg1NSwtODguMTgzIC0yLjc2NCwtODkuNTQ1IC0wLjAxLC04OC4wNzJDMi4zMiwtODYuODI0IDQuMDkzLC04NS4wMDIgNS42MzYsLTgyLjY2QzcuNTc1LC03OS43MTYgNy41MzUsLTc1Ljg4MSAxMC41MzksLTczLjMzNUMxMS40OTIsLTcyLjUyNyAxMS4yOTUsLTY5LjE4NyAxMC40NTUsLTY3LjY0MUM2LjQ0MiwtNjAuMjU1IDUuOTM1LC01Mi4zMDEgNS44NjYsLTQ0LjIxQzUuODQ1LC00MS43NDYgNi4yMjgsLTM5LjI2NCAzLjY0OCwtMzcuNTAxQzIuMywtMzYuNTc5IDIuOTIyLC0zNC43MTcgMi44NjEsLTMzLjI1NkMyLjc1OCwtMzAuODE0IDIuOTc4LC0yOC41ODcgMC43NjMsLTI2LjQ2NkMtMS4wMDcsLTI0Ljc3MSAtMC44OTIsLTIxLjYxOSAwLjk3NCwtMTkuNjM3QzMuOTM1LC0xNi40OTQgMy4yODgsLTEzLjY1IDEuMzkzLC0xMC4zMjZDLTIuMzk4LC0zLjY3NCAtMS4yNTgsNi45NjYgMy42ODYsMTIuMDc3QzQuNDMyLDEyLjg0OCA1Ljc4OCwxMi45OTEgNi43NDMsMTMuNjA5QzkuNzcsMTUuNTY1IDEyLjQ2MSwxNy4xMzEgOS41NTUsMjEuNzk2QzcuNjMsMjQuODg2IDEwLjcyLDI4LjI2NSAxMi41MjQsMzEuMTUyQzE0LjQ1NywzNC4yNDQgMTYuNjUyLDM3LjE4OCAxNi44NTcsNDEuMDI1TDMuODY3LDQxLjAyNUMtMC41NywyMy40MDkgLTQuNjA4LDUuNDAxIC0xOC4wMzEsLTcuOTI0Qy0yMy4yMjYsLTEzLjA4MiAtMjkuMDczLC0xNy43NDcgLTM0LjM0MywtMjIuOTQ0Qy0zNS40ODQsLTI0LjA3IC0zNy4wMTgsLTI1LjAyNiAtMzYuODYsLTI2Ljk5MUMtMzEuMzk2LC0yMy44MzkgLTI1LjkzMiwtMjUuODQxIC0yMC40OTIsLTI3LjA1Qy0xNS4yNTgsLTI4LjIxMiAtMTEuMDg0LC0zNi4wNDkgLTEzLjM5MSwtNDAuMjMxQy0xMy4zOTQsLTUwLjg2MyAtMTAuNjk4LC02MS4yODYgLTExLjAzOCwtNzEuOTZDLTExLjM1MSwtODEuNzUxIC0xMS45ODUsLTkxLjYyNCAtMTEuNjQ2LC0xMDEuMzE4Qy0xMS4xNjksLTExNC45NTMgLTkuMTE0LC0xMTIuMzUgLTkuMTE0LC0xMTIuMzVDLTkuMTE0LC0xMTIuMzUgLTMuODQ4LC0xMTUuOTc1IC0xLjEyMiwtMTE0LjM5MUMwLjg0OSwtMTEzLjI0NiAtMC4wOTEsLTExMC43ODIgMCwtMTA4Ljg1NiIvPiYjeGE7ICAgICAgICAgICAgICAgICAgICAgICAgPC9nPiYjeGE7ICAgICAgICAgICAgICAgICAgICA8L2c+JiN4YTsgICAgICAgICAgICAgICAgPC9nPiYjeGE7ICAgICAgICAgICAgPC9nPiYjeGE7ICAgICAgICAgICAgPGcgdHJhbnNmb3JtPSJtYXRyaXgoMC4zNjczODQsLTAuMjI0OTM4LDAuMjA1ODA1LDAuNDAxNTM4LDE1NjUuNTIsMTUxOC40NykiPiYjeGE7ICAgICAgICAgICAgICAgIDxnIHRyYW5zZm9ybT0ibWF0cml4KDAuMTU0Mzk4LDAuMDgwNjU2NCwtMC4wNjUxMzIsMC4xMjQ2OCw4OTMuNzMxLDE3NzguMzMpIj4mI3hhOyAgICAgICAgICAgICAgICAgICAgPGVsbGlwc2Ugc3R5bGU9ImZpbGw6cmdiKDIxOCwyMDMsMTYzKTsiIHJ5PSIzNS44NzUiIHJ4PSI1MC40MjciIGN5PSIyMTMwLjU1IiBjeD0iOTA5LjcyMiIvPiYjeGE7ICAgICAgICAgICAgICAgIDwvZz4mI3hhOyAgICAgICAgICAgICAgICA8ZyB0cmFuc2Zvcm09Im1hdHJpeCgwLjE1NDA1OCwwLjA4MTI0NjYsLTAuMDU4NjE0OSwwLjExMzM5Miw4OTYuMTgyLDE4MTAuMDMpIj4mI3hhOyAgICAgICAgICAgICAgICAgICAgPGVsbGlwc2Ugc3R5bGU9ImZpbGw6cmdiKDI1NSwxOTcsNDcpOyIgcnk9IjM1Ljg3NSIgcng9IjUwLjQyNyIgY3k9IjIxMzAuNTUiIGN4PSI5MDkuNzIyIi8+JiN4YTsgICAgICAgICAgICAgICAgPC9nPiYjeGE7ICAgICAgICAgICAgICAgIDxnIHRyYW5zZm9ybT0ibWF0cml4KDAuNzkwNDEsMC40MzYzNDcsLTAuNzQyMzUzLDEuMzU3OTEsMjM3NS4xNywtMTQ0My4yMSkiPiYjeGE7ICAgICAgICAgICAgICAgICAgICA8cmVjdCBzdHlsZT0iZmlsbDpyZ2IoMjU1LDE5Nyw0Nyk7IiBoZWlnaHQ9IjQzMC40NTkiIHdpZHRoPSIxNy41OTMiIHk9IjIwMzkuMzYiIHg9IjQ3MS44NDEiLz4mI3hhOyAgICAgICAgICAgICAgICA8L2c+JiN4YTsgICAgICAgICAgICAgICAgPGcgdHJhbnNmb3JtPSJtYXRyaXgoMC40Mzc3MTEsMC4yNDE2MzksLTAuNzMzMDE5LDEuMzQwODQsMjUxMy4wMSwtMTMyMi4zOCkiPiYjeGE7ICAgICAgICAgICAgICAgICAgICA8cmVjdCBzdHlsZT0iZmlsbDpyZ2IoNiwxNzIsMTU4KTsiIGhlaWdodD0iNDMwLjQ1OSIgd2lkdGg9IjE3LjU5MyIgeT0iMjAzOS4zNiIgeD0iNDcxLjg0MSIvPiYjeGE7ICAgICAgICAgICAgICAgIDwvZz4mI3hhOyAgICAgICAgICAgICAgICA8ZyB0cmFuc2Zvcm09Im1hdHJpeCgwLjU3MjIxOSwwLjMxNTg5NCwtMC43MzMxNjIsMS4zNDExLDI0ODAuNSwtMTM0MC4xOSkiPiYjeGE7ICAgICAgICAgICAgICAgICAgICA8cmVjdCBzdHlsZT0iZmlsbDpyZ2IoMTM5LDAsMjU1KTsiIGhlaWdodD0iNDMwLjQ1OSIgd2lkdGg9IjE3LjU5MyIgeT0iMjAzOS4zNiIgeD0iNDcxLjg0MSIvPiYjeGE7ICAgICAgICAgICAgICAgIDwvZz4mI3hhOyAgICAgICAgICAgICAgICA8ZyB0cmFuc2Zvcm09Im1hdHJpeCgwLjQxOTg2MiwwLjIzMTc4NSwtMC43NDk0NzYsMS4zNzA5NCwyNTc0Ljc3LC0xMzY3LjcxKSI+JiN4YTsgICAgICAgICAgICAgICAgICAgIDxyZWN0IHN0eWxlPSJmaWxsOnJnYigxMDgsMTA0LDk0KTsiIGhlaWdodD0iNDMwLjQ1OSIgd2lkdGg9IjE3LjU5MyIgeT0iMjAzOS4zNiIgeD0iNDcxLjg0MSIvPiYjeGE7ICAgICAgICAgICAgICAgIDwvZz4mI3hhOyAgICAgICAgICAgICAgICA8ZyB0cmFuc2Zvcm09Im1hdHJpeCgwLjUwODcwOSwwLjI4MDgzMywtMC43NDUzOTUsMS4zNjM0OCwyNDk1LjgsLTEzOTEuOTgpIj4mI3hhOyAgICAgICAgICAgICAgICAgICAgPHJlY3Qgc3R5bGU9ImZpbGw6cmdiKDIwMCwyNTUsNDcpO3N0cm9rZTpyZ2IoMjA5LDI1NSwwKTtzdHJva2Utd2lkdGg6Mi4wNHB4O3N0cm9rZS1saW5lY2FwOnJvdW5kO3N0cm9rZS1taXRlcmxpbWl0OjEuNTsiIGhlaWdodD0iNDMwLjQ1OSIgd2lkdGg9IjE3LjU5MyIgeT0iMjAzOS4zNiIgeD0iNDcxLjg0MSIvPiYjeGE7ICAgICAgICAgICAgICAgIDwvZz4mI3hhOyAgICAgICAgICAgICAgICA8ZyB0cmFuc2Zvcm09Im1hdHJpeCgwLjQzNzcxMSwwLjI0MTYzOSwtMC43NTc2MzEsMS4zODU4NiwyNTQwLjA1LC0xNDI5LjU3KSI+JiN4YTsgICAgICAgICAgICAgICAgICAgIDxyZWN0IHN0eWxlPSJmaWxsOnJnYigyNTUsMTk3LDQ3KTsiIGhlaWdodD0iNDMwLjQ1OSIgd2lkdGg9IjE3LjU5MyIgeT0iMjAzOS4zNiIgeD0iNDcxLjg0MSIvPiYjeGE7ICAgICAgICAgICAgICAgIDwvZz4mI3hhOyAgICAgICAgICAgICAgICA8ZyB0cmFuc2Zvcm09Im1hdHJpeCg1Ljk2NzIxLDMuMjc4OTYsLTAuNzQ3OTcyLDEuMzYxMiwtMTA2LjY4NCwtMjgyMC4wNikiPiYjeGE7ICAgICAgICAgICAgICAgICAgICA8cmVjdCBzdHlsZT0iZmlsbDpyZ2IoMTcwLDE3MCwxNzApO2ZpbGwtb3BhY2l0eTowLjcyO3N0cm9rZTpibGFjaztzdHJva2Utd2lkdGg6MS4wMXB4O3N0cm9rZS1saW5lY2FwOnJvdW5kO3N0cm9rZS1taXRlcmxpbWl0OjEuNTsiIGhlaWdodD0iNDMwLjQ1OSIgd2lkdGg9IjE3LjU5MyIgeT0iMjAzOS4zNiIgeD0iNDcxLjg0MSIvPiYjeGE7ICAgICAgICAgICAgICAgIDwvZz4mI3hhOyAgICAgICAgICAgICAgICA8ZyB0cmFuc2Zvcm09Im1hdHJpeCgwLjc1MzU2MywwLjQxNjM4NiwtMC40ODM2MzYsMC44NzUyNjksMTMzNC43MiwtMTI3Ljc2OSkiPiYjeGE7ICAgICAgICAgICAgICAgICAgICA8ZWxsaXBzZSBzdHlsZT0iZmlsbDpyZ2IoMTcwLDE3MCwxNzApO3N0cm9rZTpibGFjaztzdHJva2Utd2lkdGg6NS4zNXB4O3N0cm9rZS1saW5lY2FwOnJvdW5kO3N0cm9rZS1taXRlcmxpbWl0OjEuNTsiIHJ5PSIzMi41MzUiIHJ4PSI2OS45ODYiIGN5PSIyMTYzLjciIGN4PSI4MzMuNTY4Ii8+JiN4YTsgICAgICAgICAgICAgICAgPC9nPiYjeGE7ICAgICAgICAgICAgICAgIDxnIHRyYW5zZm9ybT0ibWF0cml4KDAuNjI5NzM0LDAuMzYzNTc3LC0wLjAxMjM0MDIsMC4wMjEzNzM5LDY1Ny4yMTcsMTkxMC4zMSkiPiYjeGE7ICAgICAgICAgICAgICAgICAgICA8cmVjdCBzdHlsZT0iZmlsbDpyZ2IoMTE2LDExNiwxMTYpOyIgaGVpZ2h0PSI0MzAuNDU5IiB3aWR0aD0iMTcuNTkzIiB5PSIyMDM5LjM2IiB4PSI0NzEuODQxIi8+JiN4YTsgICAgICAgICAgICAgICAgPC9nPiYjeGE7ICAgICAgICAgICAgICAgIDxnIHRyYW5zZm9ybT0ibWF0cml4KDAuNjI5NzM0LDAuMzYzNTc3LC0wLjAxMzc4OTEsMC4wMjM4ODM0LDY0NC43NTcsMTg4NS42NCkiPiYjeGE7ICAgICAgICAgICAgICAgICAgICA8cmVjdCBzdHlsZT0iZmlsbDpyZ2IoNyw3LDcpOyIgaGVpZ2h0PSI0MzAuNDU5IiB3aWR0aD0iMTcuNTkzIiB5PSIyMDM5LjM2IiB4PSI0NzEuODQxIi8+JiN4YTsgICAgICAgICAgICAgICAgPC9nPiYjeGE7ICAgICAgICAgICAgICAgIDxnIHRyYW5zZm9ybT0ibWF0cml4KDAuNjI5NzM0LDAuMzYzNTc3LC0wLjAxMzc4OTEsMC4wMjM4ODM0LDYzNC41NzQsMTkwMi4zMikiPiYjeGE7ICAgICAgICAgICAgICAgICAgICA8cmVjdCBzdHlsZT0iZmlsbDpyZ2IoMTkzLDE5MywxOTMpO3N0cm9rZTpyZ2IoMTkyLDE5MiwxOTIpO3N0cm9rZS13aWR0aDo0LjY2cHg7c3Ryb2tlLWxpbmVjYXA6cm91bmQ7c3Ryb2tlLW1pdGVybGltaXQ6MS41OyIgaGVpZ2h0PSI0MzAuNDU5IiB3aWR0aD0iMTcuNTkzIiB5PSIyMDM5LjM2IiB4PSI0NzEuODQxIi8+JiN4YTsgICAgICAgICAgICAgICAgPC9nPiYjeGE7ICAgICAgICAgICAgICAgIDxnIHRyYW5zZm9ybT0ibWF0cml4KDAuNjI5NzM0LDAuMzYzNTc3LC0wLjAwOTk0NjUzLDAuMDE3MjI3OSw2MDkuNzgyLDE4OTguODgpIj4mI3hhOyAgICAgICAgICAgICAgICAgICAgPHJlY3Qgc3R5bGU9ImZpbGw6cmdiKDExNiwxMTYsMTE2KTsiIGhlaWdodD0iNDMwLjQ1OSIgd2lkdGg9IjE3LjU5MyIgeT0iMjAzOS4zNiIgeD0iNDcxLjg0MSIvPiYjeGE7ICAgICAgICAgICAgICAgIDwvZz4mI3hhOyAgICAgICAgICAgICAgICA8ZyB0cmFuc2Zvcm09Im1hdHJpeCgwLjYyOTczNCwwLjM2MzU3NywtMC4wMTU2NDc2LDAuMDI3MTAyNSw2NzguOTAxLDE4NzkuMDgpIj4mI3hhOyAgICAgICAgICAgICAgICAgICAgPHJlY3Qgc3R5bGU9ImZpbGw6cmdiKDExNiwxMTYsMTE2KTsiIGhlaWdodD0iNDMwLjQ1OSIgd2lkdGg9IjE3LjU5MyIgeT0iMjAzOS4zNiIgeD0iNDcxLjg0MSIvPiYjeGE7ICAgICAgICAgICAgICAgIDwvZz4mI3hhOyAgICAgICAgICAgICAgICA8ZyB0cmFuc2Zvcm09Im1hdHJpeCgwLjYyOTczNCwwLjM2MzU3NywtMC4wMTY1NDE3LDAuMDI4NjUxLDY1OS4zNjcsMTg1OS4zNykiPiYjeGE7ICAgICAgICAgICAgICAgICAgICA8cmVjdCBzdHlsZT0iZmlsbDpyZ2IoMTE2LDExNiwxMTYpOyIgaGVpZ2h0PSI0MzAuNDU5IiB3aWR0aD0iMTcuNTkzIiB5PSIyMDM5LjM2IiB4PSI0NzEuODQxIi8+JiN4YTsgICAgICAgICAgICAgICAgPC9nPiYjeGE7ICAgICAgICAgICAgICAgIDxnIHRyYW5zZm9ybT0ibWF0cml4KDAuNjI5NzM0LDAuMzYzNTc3LC0wLjAxODE3NDksMC4wMzE0Nzk4LDY0MS42NzksMTg0My42MykiPiYjeGE7ICAgICAgICAgICAgICAgICAgICA8cmVjdCBzdHlsZT0iZmlsbDpyZ2IoMTE2LDExNiwxMTYpOyIgaGVpZ2h0PSI0MzAuNDU5IiB3aWR0aD0iMTcuNTkzIiB5PSIyMDM5LjM2IiB4PSI0NzEuODQxIi8+JiN4YTsgICAgICAgICAgICAgICAgPC9nPiYjeGE7ICAgICAgICAgICAgPC9nPiYjeGE7ICAgICAgICAgICAgPGcgaWQ9IuWbvuWxgi0xMSI+JiN4YTsgICAgICAgICAgICA8L2c+JiN4YTsgICAgICAgIDwvZz4mI3hhOyAgICA8L2c+JiN4YTs8L3N2Zz4=;rotation=0;" vertex="1" parent="j1WD4EWTUh1aqAafOjG6-21">
          <mxGeometry x="36" width="24" height="72.84" as="geometry" />
        </mxCell>
        <mxCell id="j1WD4EWTUh1aqAafOjG6-23" value="" style="rounded=0;whiteSpace=wrap;html=1;fillColor=none;" vertex="1" parent="j1WD4EWTUh1aqAafOjG6-21">
          <mxGeometry y="26.42" width="60" height="60" as="geometry" />
        </mxCell>
        <mxCell id="j1WD4EWTUh1aqAafOjG6-24" value="" style="shape=tape;whiteSpace=wrap;html=1;size=1;" vertex="1" parent="j1WD4EWTUh1aqAafOjG6-21">
          <mxGeometry y="51.42" width="60" height="10" as="geometry" />
        </mxCell>
        <mxCell id="j1WD4EWTUh1aqAafOjG6-25" value="" style="group" vertex="1" connectable="0" parent="1">
          <mxGeometry x="300" y="410" width="60" height="86.42" as="geometry" />
        </mxCell>
        <mxCell id="j1WD4EWTUh1aqAafOjG6-26" value="" style="shape=image;verticalLabelPosition=bottom;labelBackgroundColor=default;verticalAlign=top;aspect=fixed;imageAspect=0;image=data:image/svg+xml,PHN2ZyB4bWxuczp4bGluaz0iaHR0cDovL3d3dy53My5vcmcvMTk5OS94bGluayIgeG1sbnM9Imh0dHA6Ly93d3cudzMub3JnLzIwMDAvc3ZnIiBzdHlsZT0iZmlsbC1ydWxlOmV2ZW5vZGQ7Y2xpcC1ydWxlOmV2ZW5vZGQ7c3Ryb2tlLWxpbmVqb2luOnJvdW5kO3N0cm9rZS1taXRlcmxpbWl0OjI7IiB4bWw6c3BhY2U9InByZXNlcnZlIiB2ZXJzaW9uPSIxLjEiIHZpZXdCb3g9IjAgMCAxMTQgMzQ2IiBoZWlnaHQ9IjEwMCUiIHdpZHRoPSIxMDAlIj4mI3hhOyAgICA8ZyB0cmFuc2Zvcm09Im1hdHJpeCgxLDAsMCwxLC0yMjQyLC00MSkiPiYjeGE7ICAgICAgICA8ZyBpZD0i5Zu+5bGCLTEiPiYjeGE7ICAgICAgICA8L2c+JiN4YTsgICAgICAgIDxnIHRyYW5zZm9ybT0ibWF0cml4KDAuOTkwMjIxLDAsMCwwLjkwNTk5NiwtMTguMzcxNSwtMTYwNS4xMSkiIGlkPSLnlLvmnb8xIj4mI3hhOyAgICAgICAgICAgIDxyZWN0IHN0eWxlPSJmaWxsOm5vbmU7IiBoZWlnaHQ9IjE0MTcuMzIiIHdpZHRoPSIyNDM0LjcxIiB5PSIxNzcxLjY1IiB4PSIxOC41NTMiLz4mI3hhOyAgICAgICAgICAgIDxnIHRyYW5zZm9ybT0ibWF0cml4KDAuOTQ0NjAyLC0wLjM5MDM4LDAuMzU3MTc2LDEuMDMyNDIsLTUwNi4xMyw1OTMuNDM2KSI+JiN4YTsgICAgICAgICAgICAgICAgPGc+JiN4YTsgICAgICAgICAgICAgICAgICAgIDxnIHRyYW5zZm9ybT0ibWF0cml4KDIuNTM3NTgsMCwwLDIuNTM3NTgsMTU4OC43LDIwMzIuNjUpIj4mI3hhOyAgICAgICAgICAgICAgICAgICAgICAgIDxnIHRyYW5zZm9ybT0ibWF0cml4KDEsMCwwLDEsMTUyLjk3MiwwLjIwMDEpIj4mI3hhOyAgICAgICAgICAgICAgICAgICAgICAgICAgICA8cGF0aCBzdHlsZT0iZmlsbDpyZ2IoMjU1LDI1NSwyNTQpO2ZpbGwtcnVsZTpub256ZXJvOyIgZD0iTTAsMjExLjY4N0MwLDIxMS42ODcgNjAuOTUxLDIxMS42ODcgNTAuOTU5LDIxMS42ODdDNTAuODA1LDIxMC44OCA1MC44NDgsMjA5Ljk2NCA1MC40NjksMjA5LjI4MUM0MC4wMTEsMTkwLjM5MyAzMC45NzQsMTcwLjc3NCAyMC43MywxNTEuNzY0QzE1LjM2NCwxNDEuODA2IDkuOTYzLDEzMS40MzUgMTEuMTE5LDExOS4yOTNDMTIuNzYzLDEwMi4wMiA1Ljg3NCw4Ni44MyAtMC44NzQsNzEuNjQ3Qy0yLjI4Niw2OC40NyAtNC4yMDksNjUuNDk3IC0zLjg2Nyw2MS44MDZDLTMuOTU4LDU5Ljg4IC0zLjAxOSw1Ny40MTYgLTQuOTg5LDU2LjI3MUMtNy43MTUsNTQuNjg3IC0xMC4yMTgsNTYuNzEzIC0xMi45ODEsNTguMzEyQy0xMi45ODEsNDcuMTMyIC0xMi45NDQsMzYuNTEyIC0xMy4wMTgsMjUuODkzQy0xMy4wMywyNC4wNiAtMTIuMTczLDIxLjc0MiAtMTQuODM4LDIwLjc4MUMtMTUuODMzLDE4LjQyIC0xNS44NjYsMTUuNTA1IC0xOS43NSwxNS40MjhDLTM0LjI4OSwxNS4xNCAtNDguODI3LDE0Ljg1NyAtNjMuMzU0LDE1LjYwOUMtNjYuMTUzLDE1Ljc1NCAtNjguOTg1LDE2Ljg1NyAtNjguMjIsMjAuODEzQy03MC4zNDIsMjIuMDkzIC02OS45MDQsMjQuMjAyIC02OS45MSwyNi4xNDJDLTY5Ljk0NywzOS4zNDMgLTY5Ljk2NCw1Mi41NDQgLTY5Ljk4OCw2NS43NDZDLTcxLjczNyw2Ni4xNzIgLTczLjUzMSw2Ni40NjkgLTc1LjIyMyw2Ny4wNTlDLTc3LjA4NSw2Ny43MDggLTc4Ljk3LDY4LjQ4MyAtNzkuMDg1LDcwLjk3MUMtNzkuMjAyLDczLjQ5MiAtNzcuNzkxLDc0Ljk1MyAtNzUuNzAxLDc1Ljg4N0MtNzMuOTA5LDc2LjY4OCAtNzIuMDUsNzcuMzQ0IC03MC4yMjEsNzguMDY0Qy03MC4yNDEsNzguNTMzIC03MC4yNjEsNzkgLTcwLjI4MSw3OS40NjlDLTcyLjg1LDc5Ljk4NCAtNzMuOTEsODEuNTQ3IC03NS4yNzgsODMuOTI5Qy03Ny45MjEsODguNTMxIC03NS44OTgsOTEuODU4IC03NC4xMzksOTUuNTgzQy03Ni45MDgsOTYuNjQzIC03NS42NjYsOTguOTY1IC03NS43OTksMTAwLjg1NEMtNzUuMzY0LDEwMy4zNzEgLTc2LjMwMSwxMDYuNzMyIC03Mi4wNywxMDYuOTE1Qy03MS4wMjgsMTA4LjE4NyAtNjcuOTE2LDEwOS40MDcgLTcxLjYzMiwxMTAuOTg3Qy03Ny4yMTIsMTEzLjM1OSAtNzguNDAxLDExNi4zMjMgLTc1LjA5OCwxMjEuNDczQy03Mi44ODgsMTI0LjkxOCAtNjkuNTU2LDEyNy42NCAtNjguNDU4LDEzMS44MDhDLTY4LjgxOSwxMzQuMTQ5IC02Ny41NTYsMTM1LjQxMSAtNjUuNjA4LDEzNi4zN0MtNjIuOTMyLDEzNy42ODggLTYwLjA3MiwxMzcuMjg5IC01Ny4zNzgsMTM3LjAyNkMtNTAuNTgyLDEzNi4zNjMgLTQ0LjczOSwxMzcuNTkgLTQwLjcyNywxNDMuNjdDLTQwLjg4NSwxNDUuNjM2IC0zOS4zNTIsMTQ2LjU5MiAtMzguMjEsMTQ3LjcxOEMtMzIuOTQsMTUyLjkxNiAtMjcuMDkzLDE1Ny41ODEgLTIxLjg5OCwxNjIuNzM4Qy04LjQ3NSwxNzYuMDYzIC00LjQzNywxOTQuMDcxIDAsMjExLjY4NyIvPiYjeGE7ICAgICAgICAgICAgICAgICAgICAgICAgPC9nPiYjeGE7ICAgICAgICAgICAgICAgICAgICAgICAgPGcgdHJhbnNmb3JtPSJtYXRyaXgoMSwwLDAsMSwxNDkuMTA1LDIwOC40MTUpIj4mI3hhOyAgICAgICAgICAgICAgICAgICAgICAgICAgICA8cGF0aCBzdHlsZT0iZmlsbDpyZ2IoMjQ5LDIyMSwyMDcpO2ZpbGwtcnVsZTpub256ZXJvOyIgZD0iTTAsLTE0Ni40MDlDLTAuMzQyLC0xNDIuNzE4IDEuNTgyLC0xMzkuNzQ1IDIuOTk0LC0xMzYuNTY4QzkuNzQxLC0xMjEuMzg1IDE2LjYzLC0xMDYuMTk1IDE0Ljk4NiwtODguOTIyQzEzLjgzLC03Ni43OCAxOS4yMzEsLTY2LjQwOSAyNC41OTgsLTU2LjQ1MUMzNC44NDEsLTM3LjQ0MSA0My44NzgsLTE3LjgyMiA1NC4zMzYsMS4wNjZDNTQuNzE1LDEuNzQ5IDU0LjY3MiwyLjY2NSA1NC44MjYsMy40NzJMMTYuODU3LDMuNDcyQzE2LjY1MiwtMC4zNjUgMTQuNDU3LC0zLjMwOSAxMi41MjQsLTYuNDAxQzEwLjcyLC05LjI4OCA3LjYzLC0xMi42NjcgOS41NTUsLTE1Ljc1N0MxMi40NjEsLTIwLjQyMiA5Ljc3LC0yMS45ODggNi43NDMsLTIzLjk0NEM1Ljc4OCwtMjQuNTYyIDQuNDMyLC0yNC43MDUgMy42ODYsLTI1LjQ3NkMtMS4yNTgsLTMwLjU4NyAtMi4zOTgsLTQxLjIyNyAxLjM5MywtNDcuODc5QzMuMjg4LC01MS4yMDMgMy45MzUsLTU0LjA0NyAwLjk3NCwtNTcuMTlDLTAuODkyLC01OS4xNzIgLTEuMDA3LC02Mi4zMjQgMC43NjMsLTY0LjAxOUMyLjk3OCwtNjYuMTQgMi43NTgsLTY4LjM2NyAyLjg2MSwtNzAuODA5QzIuOTIyLC03Mi4yNyAyLjMsLTc0LjEzMiAzLjY0OCwtNzUuMDU0QzYuMjI4LC03Ni44MTcgNS44NDUsLTc5LjI5OSA1Ljg2NiwtODEuNzYzQzUuOTM1LC04OS44NTQgNi40NDIsLTk3LjgwOCAxMC40NTUsLTEwNS4xOTRDMTEuMjk1LC0xMDYuNzQgMTEuNDkyLC0xMTAuMDggMTAuNTM5LC0xMTAuODg4QzcuNTM1LC0xMTMuNDM0IDcuNTc1LC0xMTcuMjY5IDUuNjM2LC0xMjAuMjEzQzQuMDkzLC0xMjIuNTU1IDIuMzIsLTEyNC4zNzcgLTAuMDEsLTEyNS42MjVDLTIuNzY0LC0xMjcuMDk4IC01Ljg1NSwtMTI1LjczNiAtNS41MjUsLTEyMy4xNzhDLTUuMDE4LC0xMTkuMjQyIC02LjQwNCwtMTE0Ljk2NSAtNC4zOSwtMTExLjQyN0MtMi4zMTQsLTEwNy43OCAtNi44NjMsLTEwNi44MTEgLTYuNjY0LC0xMDQuMTE3Qy03LjUzMiwtMTA0LjIwNiAtOS4xMSwtMTAzLjQzOCAtOS4wMjEsLTEwNC45MDNDLTguNzQ3LC0xMDkuNDQ5IC0xMC4zMTYsLTExNC4xNTQgLTcuOTc4LC0xMTguNTM0Qy03LjA5OCwtMTE4LjY3OSAtNi4zOTgsLTExOC45NDYgLTYuNjQyLC0xMjAuMDlDLTcuMjIsLTEyMi44MDEgLTcuNzY2LC0xMjUuNTE4IC04LjMyNSwtMTI4LjIzM0MtNS41NjksLTEyOC43MjkgLTQuOTI1LC0xMzAuMDk5IC01LjczNCwtMTMyLjg3NEMtNi44NzgsLTEzNi44MDEgLTcuODE1LC0xNDAuNjU5IC02LjA0NiwtMTQ0Ljk4MkMtNC4zNTYsLTE0OS4xMTMgLTIuOTY4LC0xNDkuODgxIDAsLTE0Ni40MDkiLz4mI3hhOyAgICAgICAgICAgICAgICAgICAgICAgIDwvZz4mI3hhOyAgICAgICAgICAgICAgICAgICAgICAgIDxnIHRyYW5zZm9ybT0ibWF0cml4KDEsMCwwLDEsMTQ5LjEwNSwxNzAuODYyKSI+JiN4YTsgICAgICAgICAgICAgICAgICAgICAgICAgICAgPHBhdGggc3R5bGU9ImZpbGw6cmdiKDI1NSwyMjksMjE3KTtmaWxsLXJ1bGU6bm9uemVybztzdHJva2U6cmdiKDI1NSwyMTYsMTk2KTtzdHJva2Utd2lkdGg6MC4zOXB4OyIgZD0iTTAsLTEwOC44NTZDLTIuOTY4LC0xMTIuMzI4IC00LjM1NiwtMTExLjU2IC02LjA0NiwtMTA3LjQyOUMtNy44MTUsLTEwMy4xMDYgLTYuODc4LC05OS4yNDggLTUuNzM0LC05NS4zMjFDLTQuOTI1LC05Mi41NDYgLTUuNTY5LC05MS4xNzYgLTguMzI0LC05MC42OEMtOC4zMjMsLTkwLjY4MSAtOC4xODcsLTkwLjczOSAtOC4xODcsLTkwLjczOUMtOC4yNTMsLTkxLjQ4OCAtNy45NzMsLTkyLjQ2MiAtOS4yNzMsLTkyLjQwOEwtOS4wNTEsLTkwLjYyNEMtOC43NzIsLTg3LjQwMSAtMTAuMDg2LC04NC4wMDEgLTcuOTc4LC04MC45ODFDLTEwLjMxNiwtNzYuNjAxIC04Ljc0NywtNzEuODk2IC05LjAyMSwtNjcuMzVDLTkuMTEsLTY1Ljg4NSAtNy41MzIsLTY2LjY1MyAtNi42NjQsLTY2LjU2NEMtNi44NjMsLTY5LjI1OCAtMi4zMTQsLTcwLjIyNyAtNC4zOSwtNzMuODc0Qy02LjQwNCwtNzcuNDEyIC01LjAxOCwtODEuNjg5IC01LjUyNSwtODUuNjI1Qy01Ljg1NSwtODguMTgzIC0yLjc2NCwtODkuNTQ1IC0wLjAxLC04OC4wNzJDMi4zMiwtODYuODI0IDQuMDkzLC04NS4wMDIgNS42MzYsLTgyLjY2QzcuNTc1LC03OS43MTYgNy41MzUsLTc1Ljg4MSAxMC41MzksLTczLjMzNUMxMS40OTIsLTcyLjUyNyAxMS4yOTUsLTY5LjE4NyAxMC40NTUsLTY3LjY0MUM2LjQ0MiwtNjAuMjU1IDUuOTM1LC01Mi4zMDEgNS44NjYsLTQ0LjIxQzUuODQ1LC00MS43NDYgNi4yMjgsLTM5LjI2NCAzLjY0OCwtMzcuNTAxQzIuMywtMzYuNTc5IDIuOTIyLC0zNC43MTcgMi44NjEsLTMzLjI1NkMyLjc1OCwtMzAuODE0IDIuOTc4LC0yOC41ODcgMC43NjMsLTI2LjQ2NkMtMS4wMDcsLTI0Ljc3MSAtMC44OTIsLTIxLjYxOSAwLjk3NCwtMTkuNjM3QzMuOTM1LC0xNi40OTQgMy4yODgsLTEzLjY1IDEuMzkzLC0xMC4zMjZDLTIuMzk4LC0zLjY3NCAtMS4yNTgsNi45NjYgMy42ODYsMTIuMDc3QzQuNDMyLDEyLjg0OCA1Ljc4OCwxMi45OTEgNi43NDMsMTMuNjA5QzkuNzcsMTUuNTY1IDEyLjQ2MSwxNy4xMzEgOS41NTUsMjEuNzk2QzcuNjMsMjQuODg2IDEwLjcyLDI4LjI2NSAxMi41MjQsMzEuMTUyQzE0LjQ1NywzNC4yNDQgMTYuNjUyLDM3LjE4OCAxNi44NTcsNDEuMDI1TDMuODY3LDQxLjAyNUMtMC41NywyMy40MDkgLTQuNjA4LDUuNDAxIC0xOC4wMzEsLTcuOTI0Qy0yMy4yMjYsLTEzLjA4MiAtMjkuMDczLC0xNy43NDcgLTM0LjM0MywtMjIuOTQ0Qy0zNS40ODQsLTI0LjA3IC0zNy4wMTgsLTI1LjAyNiAtMzYuODYsLTI2Ljk5MUMtMzEuMzk2LC0yMy44MzkgLTI1LjkzMiwtMjUuODQxIC0yMC40OTIsLTI3LjA1Qy0xNS4yNTgsLTI4LjIxMiAtMTEuMDg0LC0zNi4wNDkgLTEzLjM5MSwtNDAuMjMxQy0xMy4zOTQsLTUwLjg2MyAtMTAuNjk4LC02MS4yODYgLTExLjAzOCwtNzEuOTZDLTExLjM1MSwtODEuNzUxIC0xMS45ODUsLTkxLjYyNCAtMTEuNjQ2LC0xMDEuMzE4Qy0xMS4xNjksLTExNC45NTMgLTkuMTE0LC0xMTIuMzUgLTkuMTE0LC0xMTIuMzVDLTkuMTE0LC0xMTIuMzUgLTMuODQ4LC0xMTUuOTc1IC0xLjEyMiwtMTE0LjM5MUMwLjg0OSwtMTEzLjI0NiAtMC4wOTEsLTExMC43ODIgMCwtMTA4Ljg1NiIvPiYjeGE7ICAgICAgICAgICAgICAgICAgICAgICAgPC9nPiYjeGE7ICAgICAgICAgICAgICAgICAgICA8L2c+JiN4YTsgICAgICAgICAgICAgICAgPC9nPiYjeGE7ICAgICAgICAgICAgPC9nPiYjeGE7ICAgICAgICAgICAgPGcgdHJhbnNmb3JtPSJtYXRyaXgoMC4zNjczODQsLTAuMjI0OTM4LDAuMjA1ODA1LDAuNDAxNTM4LDE1NjUuNTIsMTUxOC40NykiPiYjeGE7ICAgICAgICAgICAgICAgIDxnIHRyYW5zZm9ybT0ibWF0cml4KDAuMTU0Mzk4LDAuMDgwNjU2NCwtMC4wNjUxMzIsMC4xMjQ2OCw4OTMuNzMxLDE3NzguMzMpIj4mI3hhOyAgICAgICAgICAgICAgICAgICAgPGVsbGlwc2Ugc3R5bGU9ImZpbGw6cmdiKDIxOCwyMDMsMTYzKTsiIHJ5PSIzNS44NzUiIHJ4PSI1MC40MjciIGN5PSIyMTMwLjU1IiBjeD0iOTA5LjcyMiIvPiYjeGE7ICAgICAgICAgICAgICAgIDwvZz4mI3hhOyAgICAgICAgICAgICAgICA8ZyB0cmFuc2Zvcm09Im1hdHJpeCgwLjE1NDA1OCwwLjA4MTI0NjYsLTAuMDU4NjE0OSwwLjExMzM5Miw4OTYuMTgyLDE4MTAuMDMpIj4mI3hhOyAgICAgICAgICAgICAgICAgICAgPGVsbGlwc2Ugc3R5bGU9ImZpbGw6cmdiKDI1NSwxOTcsNDcpOyIgcnk9IjM1Ljg3NSIgcng9IjUwLjQyNyIgY3k9IjIxMzAuNTUiIGN4PSI5MDkuNzIyIi8+JiN4YTsgICAgICAgICAgICAgICAgPC9nPiYjeGE7ICAgICAgICAgICAgICAgIDxnIHRyYW5zZm9ybT0ibWF0cml4KDAuNzkwNDEsMC40MzYzNDcsLTAuNzQyMzUzLDEuMzU3OTEsMjM3NS4xNywtMTQ0My4yMSkiPiYjeGE7ICAgICAgICAgICAgICAgICAgICA8cmVjdCBzdHlsZT0iZmlsbDpyZ2IoMjU1LDE5Nyw0Nyk7IiBoZWlnaHQ9IjQzMC40NTkiIHdpZHRoPSIxNy41OTMiIHk9IjIwMzkuMzYiIHg9IjQ3MS44NDEiLz4mI3hhOyAgICAgICAgICAgICAgICA8L2c+JiN4YTsgICAgICAgICAgICAgICAgPGcgdHJhbnNmb3JtPSJtYXRyaXgoMC40Mzc3MTEsMC4yNDE2MzksLTAuNzMzMDE5LDEuMzQwODQsMjUxMy4wMSwtMTMyMi4zOCkiPiYjeGE7ICAgICAgICAgICAgICAgICAgICA8cmVjdCBzdHlsZT0iZmlsbDpyZ2IoNiwxNzIsMTU4KTsiIGhlaWdodD0iNDMwLjQ1OSIgd2lkdGg9IjE3LjU5MyIgeT0iMjAzOS4zNiIgeD0iNDcxLjg0MSIvPiYjeGE7ICAgICAgICAgICAgICAgIDwvZz4mI3hhOyAgICAgICAgICAgICAgICA8ZyB0cmFuc2Zvcm09Im1hdHJpeCgwLjU3MjIxOSwwLjMxNTg5NCwtMC43MzMxNjIsMS4zNDExLDI0ODAuNSwtMTM0MC4xOSkiPiYjeGE7ICAgICAgICAgICAgICAgICAgICA8cmVjdCBzdHlsZT0iZmlsbDpyZ2IoMTM5LDAsMjU1KTsiIGhlaWdodD0iNDMwLjQ1OSIgd2lkdGg9IjE3LjU5MyIgeT0iMjAzOS4zNiIgeD0iNDcxLjg0MSIvPiYjeGE7ICAgICAgICAgICAgICAgIDwvZz4mI3hhOyAgICAgICAgICAgICAgICA8ZyB0cmFuc2Zvcm09Im1hdHJpeCgwLjQxOTg2MiwwLjIzMTc4NSwtMC43NDk0NzYsMS4zNzA5NCwyNTc0Ljc3LC0xMzY3LjcxKSI+JiN4YTsgICAgICAgICAgICAgICAgICAgIDxyZWN0IHN0eWxlPSJmaWxsOnJnYigxMDgsMTA0LDk0KTsiIGhlaWdodD0iNDMwLjQ1OSIgd2lkdGg9IjE3LjU5MyIgeT0iMjAzOS4zNiIgeD0iNDcxLjg0MSIvPiYjeGE7ICAgICAgICAgICAgICAgIDwvZz4mI3hhOyAgICAgICAgICAgICAgICA8ZyB0cmFuc2Zvcm09Im1hdHJpeCgwLjUwODcwOSwwLjI4MDgzMywtMC43NDUzOTUsMS4zNjM0OCwyNDk1LjgsLTEzOTEuOTgpIj4mI3hhOyAgICAgICAgICAgICAgICAgICAgPHJlY3Qgc3R5bGU9ImZpbGw6cmdiKDIwMCwyNTUsNDcpO3N0cm9rZTpyZ2IoMjA5LDI1NSwwKTtzdHJva2Utd2lkdGg6Mi4wNHB4O3N0cm9rZS1saW5lY2FwOnJvdW5kO3N0cm9rZS1taXRlcmxpbWl0OjEuNTsiIGhlaWdodD0iNDMwLjQ1OSIgd2lkdGg9IjE3LjU5MyIgeT0iMjAzOS4zNiIgeD0iNDcxLjg0MSIvPiYjeGE7ICAgICAgICAgICAgICAgIDwvZz4mI3hhOyAgICAgICAgICAgICAgICA8ZyB0cmFuc2Zvcm09Im1hdHJpeCgwLjQzNzcxMSwwLjI0MTYzOSwtMC43NTc2MzEsMS4zODU4NiwyNTQwLjA1LC0xNDI5LjU3KSI+JiN4YTsgICAgICAgICAgICAgICAgICAgIDxyZWN0IHN0eWxlPSJmaWxsOnJnYigyNTUsMTk3LDQ3KTsiIGhlaWdodD0iNDMwLjQ1OSIgd2lkdGg9IjE3LjU5MyIgeT0iMjAzOS4zNiIgeD0iNDcxLjg0MSIvPiYjeGE7ICAgICAgICAgICAgICAgIDwvZz4mI3hhOyAgICAgICAgICAgICAgICA8ZyB0cmFuc2Zvcm09Im1hdHJpeCg1Ljk2NzIxLDMuMjc4OTYsLTAuNzQ3OTcyLDEuMzYxMiwtMTA2LjY4NCwtMjgyMC4wNikiPiYjeGE7ICAgICAgICAgICAgICAgICAgICA8cmVjdCBzdHlsZT0iZmlsbDpyZ2IoMTcwLDE3MCwxNzApO2ZpbGwtb3BhY2l0eTowLjcyO3N0cm9rZTpibGFjaztzdHJva2Utd2lkdGg6MS4wMXB4O3N0cm9rZS1saW5lY2FwOnJvdW5kO3N0cm9rZS1taXRlcmxpbWl0OjEuNTsiIGhlaWdodD0iNDMwLjQ1OSIgd2lkdGg9IjE3LjU5MyIgeT0iMjAzOS4zNiIgeD0iNDcxLjg0MSIvPiYjeGE7ICAgICAgICAgICAgICAgIDwvZz4mI3hhOyAgICAgICAgICAgICAgICA8ZyB0cmFuc2Zvcm09Im1hdHJpeCgwLjc1MzU2MywwLjQxNjM4NiwtMC40ODM2MzYsMC44NzUyNjksMTMzNC43MiwtMTI3Ljc2OSkiPiYjeGE7ICAgICAgICAgICAgICAgICAgICA8ZWxsaXBzZSBzdHlsZT0iZmlsbDpyZ2IoMTcwLDE3MCwxNzApO3N0cm9rZTpibGFjaztzdHJva2Utd2lkdGg6NS4zNXB4O3N0cm9rZS1saW5lY2FwOnJvdW5kO3N0cm9rZS1taXRlcmxpbWl0OjEuNTsiIHJ5PSIzMi41MzUiIHJ4PSI2OS45ODYiIGN5PSIyMTYzLjciIGN4PSI4MzMuNTY4Ii8+JiN4YTsgICAgICAgICAgICAgICAgPC9nPiYjeGE7ICAgICAgICAgICAgICAgIDxnIHRyYW5zZm9ybT0ibWF0cml4KDAuNjI5NzM0LDAuMzYzNTc3LC0wLjAxMjM0MDIsMC4wMjEzNzM5LDY1Ny4yMTcsMTkxMC4zMSkiPiYjeGE7ICAgICAgICAgICAgICAgICAgICA8cmVjdCBzdHlsZT0iZmlsbDpyZ2IoMTE2LDExNiwxMTYpOyIgaGVpZ2h0PSI0MzAuNDU5IiB3aWR0aD0iMTcuNTkzIiB5PSIyMDM5LjM2IiB4PSI0NzEuODQxIi8+JiN4YTsgICAgICAgICAgICAgICAgPC9nPiYjeGE7ICAgICAgICAgICAgICAgIDxnIHRyYW5zZm9ybT0ibWF0cml4KDAuNjI5NzM0LDAuMzYzNTc3LC0wLjAxMzc4OTEsMC4wMjM4ODM0LDY0NC43NTcsMTg4NS42NCkiPiYjeGE7ICAgICAgICAgICAgICAgICAgICA8cmVjdCBzdHlsZT0iZmlsbDpyZ2IoNyw3LDcpOyIgaGVpZ2h0PSI0MzAuNDU5IiB3aWR0aD0iMTcuNTkzIiB5PSIyMDM5LjM2IiB4PSI0NzEuODQxIi8+JiN4YTsgICAgICAgICAgICAgICAgPC9nPiYjeGE7ICAgICAgICAgICAgICAgIDxnIHRyYW5zZm9ybT0ibWF0cml4KDAuNjI5NzM0LDAuMzYzNTc3LC0wLjAxMzc4OTEsMC4wMjM4ODM0LDYzNC41NzQsMTkwMi4zMikiPiYjeGE7ICAgICAgICAgICAgICAgICAgICA8cmVjdCBzdHlsZT0iZmlsbDpyZ2IoMTkzLDE5MywxOTMpO3N0cm9rZTpyZ2IoMTkyLDE5MiwxOTIpO3N0cm9rZS13aWR0aDo0LjY2cHg7c3Ryb2tlLWxpbmVjYXA6cm91bmQ7c3Ryb2tlLW1pdGVybGltaXQ6MS41OyIgaGVpZ2h0PSI0MzAuNDU5IiB3aWR0aD0iMTcuNTkzIiB5PSIyMDM5LjM2IiB4PSI0NzEuODQxIi8+JiN4YTsgICAgICAgICAgICAgICAgPC9nPiYjeGE7ICAgICAgICAgICAgICAgIDxnIHRyYW5zZm9ybT0ibWF0cml4KDAuNjI5NzM0LDAuMzYzNTc3LC0wLjAwOTk0NjUzLDAuMDE3MjI3OSw2MDkuNzgyLDE4OTguODgpIj4mI3hhOyAgICAgICAgICAgICAgICAgICAgPHJlY3Qgc3R5bGU9ImZpbGw6cmdiKDExNiwxMTYsMTE2KTsiIGhlaWdodD0iNDMwLjQ1OSIgd2lkdGg9IjE3LjU5MyIgeT0iMjAzOS4zNiIgeD0iNDcxLjg0MSIvPiYjeGE7ICAgICAgICAgICAgICAgIDwvZz4mI3hhOyAgICAgICAgICAgICAgICA8ZyB0cmFuc2Zvcm09Im1hdHJpeCgwLjYyOTczNCwwLjM2MzU3NywtMC4wMTU2NDc2LDAuMDI3MTAyNSw2NzguOTAxLDE4NzkuMDgpIj4mI3hhOyAgICAgICAgICAgICAgICAgICAgPHJlY3Qgc3R5bGU9ImZpbGw6cmdiKDExNiwxMTYsMTE2KTsiIGhlaWdodD0iNDMwLjQ1OSIgd2lkdGg9IjE3LjU5MyIgeT0iMjAzOS4zNiIgeD0iNDcxLjg0MSIvPiYjeGE7ICAgICAgICAgICAgICAgIDwvZz4mI3hhOyAgICAgICAgICAgICAgICA8ZyB0cmFuc2Zvcm09Im1hdHJpeCgwLjYyOTczNCwwLjM2MzU3NywtMC4wMTY1NDE3LDAuMDI4NjUxLDY1OS4zNjcsMTg1OS4zNykiPiYjeGE7ICAgICAgICAgICAgICAgICAgICA8cmVjdCBzdHlsZT0iZmlsbDpyZ2IoMTE2LDExNiwxMTYpOyIgaGVpZ2h0PSI0MzAuNDU5IiB3aWR0aD0iMTcuNTkzIiB5PSIyMDM5LjM2IiB4PSI0NzEuODQxIi8+JiN4YTsgICAgICAgICAgICAgICAgPC9nPiYjeGE7ICAgICAgICAgICAgICAgIDxnIHRyYW5zZm9ybT0ibWF0cml4KDAuNjI5NzM0LDAuMzYzNTc3LC0wLjAxODE3NDksMC4wMzE0Nzk4LDY0MS42NzksMTg0My42MykiPiYjeGE7ICAgICAgICAgICAgICAgICAgICA8cmVjdCBzdHlsZT0iZmlsbDpyZ2IoMTE2LDExNiwxMTYpOyIgaGVpZ2h0PSI0MzAuNDU5IiB3aWR0aD0iMTcuNTkzIiB5PSIyMDM5LjM2IiB4PSI0NzEuODQxIi8+JiN4YTsgICAgICAgICAgICAgICAgPC9nPiYjeGE7ICAgICAgICAgICAgPC9nPiYjeGE7ICAgICAgICAgICAgPGcgaWQ9IuWbvuWxgi0xMSI+JiN4YTsgICAgICAgICAgICA8L2c+JiN4YTsgICAgICAgIDwvZz4mI3hhOyAgICA8L2c+JiN4YTs8L3N2Zz4=;rotation=0;" vertex="1" parent="j1WD4EWTUh1aqAafOjG6-25">
          <mxGeometry x="36" width="24" height="72.84" as="geometry" />
        </mxCell>
        <mxCell id="j1WD4EWTUh1aqAafOjG6-27" value="" style="rounded=0;whiteSpace=wrap;html=1;fillColor=none;" vertex="1" parent="j1WD4EWTUh1aqAafOjG6-25">
          <mxGeometry y="26.42" width="60" height="60" as="geometry" />
        </mxCell>
        <mxCell id="j1WD4EWTUh1aqAafOjG6-28" value="" style="shape=tape;whiteSpace=wrap;html=1;size=1;" vertex="1" parent="j1WD4EWTUh1aqAafOjG6-25">
          <mxGeometry y="51.42" width="60" height="10" as="geometry" />
        </mxCell>
        <mxCell id="j1WD4EWTUh1aqAafOjG6-29" value="&lt;font style=&quot;font-size: 11px;&quot;&gt;智能终端&lt;/font&gt;" style="rounded=0;whiteSpace=wrap;html=1;fillColor=none;" vertex="1" parent="1">
          <mxGeometry x="405" y="140" width="60" height="30" as="geometry" />
        </mxCell>
        <mxCell id="j1WD4EWTUh1aqAafOjG6-30" style="edgeStyle=orthogonalEdgeStyle;rounded=0;orthogonalLoop=1;jettySize=auto;html=1;strokeColor=#808080;exitX=0.988;exitY=0.427;exitDx=0;exitDy=0;exitPerimeter=0;entryX=0;entryY=0.5;entryDx=0;entryDy=0;" edge="1" parent="1" target="j1WD4EWTUh1aqAafOjG6-31">
          <mxGeometry relative="1" as="geometry">
            <Array as="points">
              <mxPoint x="362.72" y="266" />
            </Array>
            <mxPoint x="360" y="265.62" as="sourcePoint" />
            <mxPoint x="390.72" y="300" as="targetPoint" />
          </mxGeometry>
        </mxCell>
        <mxCell id="j1WD4EWTUh1aqAafOjG6-31" value="&lt;font style=&quot;font-size: 11px;&quot;&gt;智能终端&lt;/font&gt;" style="rounded=0;whiteSpace=wrap;html=1;fillColor=none;" vertex="1" parent="1">
          <mxGeometry x="405.72" y="250" width="60" height="30" as="geometry" />
        </mxCell>
        <mxCell id="j1WD4EWTUh1aqAafOjG6-32" style="edgeStyle=orthogonalEdgeStyle;rounded=0;orthogonalLoop=1;jettySize=auto;html=1;strokeColor=#808080;exitX=0.988;exitY=0.427;exitDx=0;exitDy=0;exitPerimeter=0;entryX=0;entryY=0.5;entryDx=0;entryDy=0;" edge="1" parent="1" target="j1WD4EWTUh1aqAafOjG6-33">
          <mxGeometry relative="1" as="geometry">
            <Array as="points">
              <mxPoint x="362" y="366" />
            </Array>
            <mxPoint x="359.28" y="365.62" as="sourcePoint" />
            <mxPoint x="390" y="400" as="targetPoint" />
          </mxGeometry>
        </mxCell>
        <mxCell id="j1WD4EWTUh1aqAafOjG6-33" value="&lt;font style=&quot;font-size: 11px;&quot;&gt;智能终端&lt;/font&gt;" style="rounded=0;whiteSpace=wrap;html=1;fillColor=none;" vertex="1" parent="1">
          <mxGeometry x="405" y="350" width="60" height="30" as="geometry" />
        </mxCell>
        <mxCell id="j1WD4EWTUh1aqAafOjG6-34" style="edgeStyle=orthogonalEdgeStyle;rounded=0;orthogonalLoop=1;jettySize=auto;html=1;strokeColor=#808080;exitX=0.988;exitY=0.427;exitDx=0;exitDy=0;exitPerimeter=0;entryX=0;entryY=0.5;entryDx=0;entryDy=0;" edge="1" parent="1" target="j1WD4EWTUh1aqAafOjG6-35">
          <mxGeometry relative="1" as="geometry">
            <Array as="points">
              <mxPoint x="362.72" y="467" />
            </Array>
            <mxPoint x="360" y="466.62" as="sourcePoint" />
            <mxPoint x="390.72" y="501" as="targetPoint" />
          </mxGeometry>
        </mxCell>
        <mxCell id="j1WD4EWTUh1aqAafOjG6-35" value="&lt;font style=&quot;font-size: 11px;&quot;&gt;智能终端&lt;/font&gt;" style="rounded=0;whiteSpace=wrap;html=1;fillColor=none;" vertex="1" parent="1">
          <mxGeometry x="405.72" y="451" width="60" height="30" as="geometry" />
        </mxCell>
        <mxCell id="j1WD4EWTUh1aqAafOjG6-36" value="&amp;nbsp; &amp;nbsp; 路由器" style="html=1;whiteSpace=wrap;container=1;recursiveResize=0;collapsible=0;fontSize=11;fillColor=default;" vertex="1" parent="1">
          <mxGeometry x="520" y="290" width="160" height="46" as="geometry" />
        </mxCell>
        <mxCell id="j1WD4EWTUh1aqAafOjG6-37" value="" style="triangle;html=1;whiteSpace=wrap;fontSize=11;fillColor=none;" vertex="1" parent="j1WD4EWTUh1aqAafOjG6-36">
          <mxGeometry x="30" y="9" width="20" height="30" as="geometry" />
        </mxCell>
        <mxCell id="j1WD4EWTUh1aqAafOjG6-40" style="edgeStyle=orthogonalEdgeStyle;rounded=0;orthogonalLoop=1;jettySize=auto;html=1;strokeColor=#3333FF;endArrow=classic;endFill=0;startArrow=classic;startFill=0;dashed=1;strokeWidth=2;entryX=0.5;entryY=0;entryDx=0;entryDy=0;" edge="1" parent="1" target="j1WD4EWTUh1aqAafOjG6-36">
          <mxGeometry relative="1" as="geometry">
            <Array as="points">
              <mxPoint x="600" y="155" />
            </Array>
            <mxPoint x="465.72" y="154.72" as="sourcePoint" />
            <mxPoint x="600" y="220" as="targetPoint" />
          </mxGeometry>
        </mxCell>
        <mxCell id="j1WD4EWTUh1aqAafOjG6-43" style="edgeStyle=orthogonalEdgeStyle;rounded=0;orthogonalLoop=1;jettySize=auto;html=1;strokeColor=#3333FF;endArrow=classic;endFill=0;startArrow=classic;startFill=0;dashed=1;strokeWidth=2;entryX=0.25;entryY=0;entryDx=0;entryDy=0;exitX=1;exitY=0.5;exitDx=0;exitDy=0;" edge="1" parent="1" source="j1WD4EWTUh1aqAafOjG6-31" target="j1WD4EWTUh1aqAafOjG6-36">
          <mxGeometry relative="1" as="geometry">
            <Array as="points">
              <mxPoint x="560" y="265" />
            </Array>
            <mxPoint x="475.72" y="164.72000000000003" as="sourcePoint" />
            <mxPoint x="609.9999999999998" y="300" as="targetPoint" />
          </mxGeometry>
        </mxCell>
        <mxCell id="j1WD4EWTUh1aqAafOjG6-44" style="edgeStyle=orthogonalEdgeStyle;rounded=0;orthogonalLoop=1;jettySize=auto;html=1;strokeColor=#3333FF;endArrow=classic;endFill=0;startArrow=classic;startFill=0;dashed=1;strokeWidth=2;exitX=1;exitY=0.5;exitDx=0;exitDy=0;" edge="1" parent="1" source="j1WD4EWTUh1aqAafOjG6-33">
          <mxGeometry relative="1" as="geometry">
            <Array as="points">
              <mxPoint x="560" y="365" />
              <mxPoint x="560" y="336" />
            </Array>
            <mxPoint x="465.72" y="365" as="sourcePoint" />
            <mxPoint x="560" y="336" as="targetPoint" />
          </mxGeometry>
        </mxCell>
        <mxCell id="j1WD4EWTUh1aqAafOjG6-45" style="edgeStyle=orthogonalEdgeStyle;rounded=0;orthogonalLoop=1;jettySize=auto;html=1;strokeColor=#3333FF;endArrow=classic;endFill=0;startArrow=classic;startFill=0;dashed=1;strokeWidth=2;exitX=1;exitY=0.5;exitDx=0;exitDy=0;entryX=0.5;entryY=1;entryDx=0;entryDy=0;" edge="1" parent="1" source="j1WD4EWTUh1aqAafOjG6-35" target="j1WD4EWTUh1aqAafOjG6-36">
          <mxGeometry relative="1" as="geometry">
            <Array as="points">
              <mxPoint x="600" y="466" />
            </Array>
            <mxPoint x="465" y="460.05" as="sourcePoint" />
            <mxPoint x="600" y="340" as="targetPoint" />
          </mxGeometry>
        </mxCell>
        <mxCell id="j1WD4EWTUh1aqAafOjG6-60" value="&lt;font style=&quot;font-size: 17px; background-color: rgb(204, 204, 204);&quot;&gt;可视化平台*1&lt;/font&gt;" style="rounded=0;whiteSpace=wrap;html=1;shadow=0;glass=0;dashed=1;sketch=0;strokeColor=none;strokeWidth=2;fontFamily=Helvetica;fontSize=13;fillColor=none;fontColor=default;" vertex="1" parent="1">
          <mxGeometry x="820" y="420" width="135.5" height="40" as="geometry" />
        </mxCell>
        <mxCell id="j1WD4EWTUh1aqAafOjG6-62" value="&lt;font style=&quot;font-size: 17px; background-color: rgb(204, 204, 204);&quot;&gt;智能检测装备*4&lt;/font&gt;" style="rounded=0;whiteSpace=wrap;html=1;shadow=0;glass=0;dashed=1;sketch=0;strokeColor=none;strokeWidth=2;fontFamily=Helvetica;fontSize=13;fillColor=none;fontColor=default;" vertex="1" parent="1">
          <mxGeometry x="374.5" y="500" width="135.5" height="40" as="geometry" />
        </mxCell>
        <mxCell id="j1WD4EWTUh1aqAafOjG6-70" value="&lt;font style=&quot;font-size: 5px; background-color: rgb(204, 204, 204);&quot;&gt;高集成精准传感阵列&lt;/font&gt;" style="rounded=0;whiteSpace=wrap;html=1;shadow=0;glass=0;dashed=1;sketch=0;strokeColor=none;strokeWidth=2;fontFamily=Helvetica;fontSize=5;fillColor=none;fontColor=default;" vertex="1" parent="1">
          <mxGeometry x="290" y="80" width="135" height="30" as="geometry" />
        </mxCell>
      </root>
    </mxGraphModel>
  </diagram>
</mxfile>
